<svg xmlns="http://www.w3.org/2000/svg" viewBox="0 0 300.525 300.525">
  <defs>
    <style>
      .cls-1 {
        fill: #2c2a2b;
      }

      .cls-2, .cls-4, .cls-7, .cls-8 {
        fill: none;
      }

      .cls-2 {
        stroke: #343233;
      }

      .cls-3 {
        fill: #ffce5f;
      }

      .cls-5 {
        fill: #fff;
      }

      .cls-6 {
        fill: #41484a;
      }

      .cls-7 {
        stroke: #908774;
      }

      .cls-7, .cls-8 {
        stroke-width: 4px;
      }

      .cls-8 {
        stroke: #ffce5f;
      }

      .cls-9 {
        stroke: none;
      }
    </style>
  </defs>
  <g id="Group_875" data-name="Group 875" transform="translate(718.262 -1082.738)">
    <g id="Group_874" data-name="Group 874" transform="matrix(0.407, 0.914, -0.914, 0.407, -114.809, 187.911)">
      <path id="Subtraction_3" data-name="Subtraction 3" class="cls-1" d="M108,216a107.495,107.495,0,0,1-60.384-18.445A108.316,108.316,0,0,1,8.487,150.038,107.858,107.858,0,0,1,18.445,47.616,108.314,108.314,0,0,1,65.961,8.487a107.858,107.858,0,0,1,102.422,9.957,108.316,108.316,0,0,1,39.129,47.517,107.856,107.856,0,0,1-9.958,102.422,108.318,108.318,0,0,1-47.517,39.129A107.32,107.32,0,0,1,108,216Zm0-131.017a23.016,23.016,0,1,0,16.274,6.741A22.867,22.867,0,0,0,108,84.983Z" transform="translate(662 732)"/>
      <g id="Ellipse_336" data-name="Ellipse 336" class="cls-2" transform="translate(679.705 749.705)">
        <circle class="cls-9" cx="90.295" cy="90.295" r="90.295"/>
        <circle class="cls-4" cx="90.295" cy="90.295" r="89.795"/>
      </g>
      <g id="Ellipse_335" data-name="Ellipse 335" class="cls-2" transform="translate(695.639 765.639)">
        <circle class="cls-9" cx="74.36" cy="74.36" r="74.36"/>
        <circle class="cls-4" cx="74.36" cy="74.36" r="73.86"/>
      </g>
      <path id="Subtraction_2" data-name="Subtraction 2" class="cls-3" d="M56.656,113.311A56.67,56.67,0,0,1,34.6,4.452,56.67,56.67,0,0,1,78.709,108.859,56.3,56.3,0,0,1,56.656,113.311Zm0-79.672a23.016,23.016,0,1,0,16.274,6.741A22.867,22.867,0,0,0,56.656,33.639Z" transform="translate(713.344 783.344)"/>
    </g>
    <g id="buttons" transform="translate(-757 768)">
      <rect id="Rectangle_1455" data-name="Rectangle 1455" class="cls-4" width="16" height="16" transform="translate(108 458)"/>
      <path id="Union_45" data-name="Union 45" class="cls-5" d="M-935.839-17061.152l-7.361-4.293a1.165,1.165,0,0,1,0-2.086l7.361-4.293a1.216,1.216,0,0,1,1.838,1.1v8.467a1.279,1.279,0,0,1-1.31,1.215A1.345,1.345,0,0,1-935.839-17061.152Zm-10,0-7.361-4.293a1.165,1.165,0,0,1,0-2.086l7.361-4.293a1.22,1.22,0,0,1,1.842,1.1v8.467a1.281,1.281,0,0,1-1.313,1.215A1.347,1.347,0,0,1-945.84-17061.152Z" transform="translate(1050 17531.998)"/>
      <rect id="Rectangle_1456" data-name="Rectangle 1456" class="cls-4" width="16" height="16" transform="translate(250.999 457)"/>
      <path id="Union_47" data-name="Union 47" class="cls-5" d="M-928-17062.32v-8.467a1.3,1.3,0,0,1,1.838-1.105l7.365,4.293a1.169,1.169,0,0,1,0,2.088l-7.365,4.293a1.251,1.251,0,0,1-.628.172A1.234,1.234,0,0,1-928-17062.32Zm-10,0v-8.467a1.3,1.3,0,0,1,1.838-1.105l7.365,4.293a1.169,1.169,0,0,1,0,2.088l-7.365,4.293a1.251,1.251,0,0,1-.628.172A1.234,1.234,0,0,1-938-17062.32Z" transform="translate(1201 17531.002)"/>
      <g id="Pause_1" data-name="Pause – 1" transform="translate(-3 -129)">
        <rect id="Rectangle_1448" data-name="Rectangle 1448" class="cls-4" width="16" height="16" transform="translate(182 587)"/>
        <path id="Union_46" data-name="Union 46" class="cls-6" d="M-939.4-17056a1,1,0,0,1-1-1v-14a1,1,0,0,1,1-1h2.8a1,1,0,0,1,1,1v14a1,1,0,0,1-1,1Zm-9.6,0a1,1,0,0,1-1-1v-14a1,1,0,0,1,1-1h2.8a1,1,0,0,1,1,1v14a1,1,0,0,1-1,1Z" transform="translate(1133 17659)"/>
      </g>
    </g>
    <circle id="Ellipse_456" data-name="Ellipse 456" class="cls-7" cx="108" cy="108" r="108" transform="translate(-607.531 1380.531) rotate(-120)"/>
    <path id="Path_904" data-name="Path 904" class="cls-8" d="M425-287c71.122,0,108.5,58.593,107.971,112.881S485.046-70.924,425-71.008s-92.689-44.432-102.1-72.714" transform="translate(-936.018 953.573) rotate(60)"/>
    <g id="Jugoton_paths" data-name="Jugoton paths" transform="matrix(0.407, 0.914, -0.914, 0.407, -537.793, 1198.307)">
      <path id="Path_797" data-name="Path 797" class="cls-6" d="M847.854,214.5a5.686,5.686,0,0,0-1.452,1.011c-.183.128-.331.3-.506.441a.5.5,0,0,1-.672.071.492.492,0,0,1-.152-.659,5.355,5.355,0,0,0,.3-.807c.034-.147.329-.368-.023-.479a.4.4,0,0,0-.518.29,3.578,3.578,0,0,1-.963,1.256,1.631,1.631,0,0,1-2.332.207.828.828,0,0,0-.819-.007c-.437.148-.928.4-1.324-.009a1.485,1.485,0,0,1-.2-1.519c.058-.219.338-.526.082-.651a.678.678,0,0,0-.795.359,6.753,6.753,0,0,1-1.287,1.621,1.688,1.688,0,0,1-2.459.11c-.329-.255-.544-.1-.768.077a9.455,9.455,0,0,0-2.162,2.362,3.968,3.968,0,0,1-1.218,1.318c-.255.157-.538.269-.807.034-.292-.257-.135-.526.016-.782a12.862,12.862,0,0,1,1.305-1.613c.471-.586.456-.538-.22-.8a1.749,1.749,0,0,0-1.531.016.848.848,0,0,1-1.05-.19c-.288-.317-.562-.259-.894-.089a1.222,1.222,0,0,1-1.394-.013,1.264,1.264,0,0,1-.294-1.365c.03-.143.171-.307-.012-.423-.145-.093-.3.008-.444.059a1.534,1.534,0,0,0-.807.762,24.574,24.574,0,0,1-1.826,2.966,3.325,3.325,0,0,1-1.486,1.21c-.926.32-1.577-.2-1.433-1.168a3.2,3.2,0,0,1,.778-1.613,11.71,11.71,0,0,1,2.841-2.331,3.589,3.589,0,0,0,1.416-2.958c.054-.458-.338-.7-.807-.707a2.929,2.929,0,0,0-1.655.464,3.959,3.959,0,0,1-.708.372.425.425,0,0,1-.538-.164.464.464,0,0,1,.1-.551,3.838,3.838,0,0,1,3.707-.968,1.457,1.457,0,0,1,.941,1.276,4.27,4.27,0,0,1-.134,1.33c-.05.227-.247.508,0,.679.206.144.477-.013.7-.106a2.335,2.335,0,0,0,.9-.575c.269-.3.587-.473.93-.182.363.309.056.609-.116.881-.25.4-.527.776-.778,1.172a1.626,1.626,0,0,0-.376.948c.393-.024.558-.3.744-.523.61-.742,1.21-1.495,1.818-2.24.208-.255.411-.457.782-.192.4.284.18.538.027.807-.32.538-.666,1.076-.987,1.613-.1.163-.261.386-.031.523.19.114.4-.054.512-.216.3-.423.427-.941.766-1.359a2.849,2.849,0,0,1,3.026-1.332c1.335.3,1.344.22.734,1.491-.066.134-.19.269-.064.444.308-.017.331-.306.458-.495a3.688,3.688,0,0,1,2.347-1.655,1.18,1.18,0,0,1,1.338.351c.245.325.563.214.848.067a4.426,4.426,0,0,0,1.326-1.01c.113-.134.347-.219.269-.421-.075-.18-.311-.149-.477-.149-1.254,0-2.509.007-3.764.013-.4,0-.807.015-1.21,0-.233,0-.573.059-.562-.3.009-.3.121-.636.524-.672.245-.023.492-.027.738-.028,1.748-.013,3.5-.036,5.243-.028a1.341,1.341,0,0,0,1.254-.6c.149-.223.34-.5.7-.4a.552.552,0,0,1,.437.648c-.011.324.3.269.507.284.761.038,1.523.038,2.286.087.269.017.733-.161.757.3.028.511-.4.546-.815.554-1.051.021-2.1.063-3.155.086a.88.88,0,0,0-.807.378,13.759,13.759,0,0,0-2.045,3.241c-.122.391.071.343.254.277a.819.819,0,0,0,.538-.43,6.1,6.1,0,0,1,1.129-1.557,1.876,1.876,0,0,1,2.815-.134.538.538,0,0,0,.619.1,8.391,8.391,0,0,0,.968-.457.606.606,0,0,1,.684-.054.506.506,0,0,1,.195.643,1.672,1.672,0,0,0,0,.344c.448-.312.824-.577,1.21-.838a.65.65,0,0,1,.86-.009c.293.241.239.5.125.789-.135.332-.258.672-.391,1a2.623,2.623,0,0,0-.325,1.041,3.338,3.338,0,0,0,1.274-.639c.269-.165.516-.212.7.075a.493.493,0,0,1-.12.747,5.543,5.543,0,0,1-1.882,1.006c-.992.288-1.488-.177-1.266-1.182C847.85,214.883,847.974,214.724,847.854,214.5Zm-5.243.687c.538-.032,1.44-1.183,1.336-1.652-.062-.278-.2-.551-.554-.351a2.13,2.13,0,0,0-1.105,1.514c-.052.28.065.48.321.491Zm-5.318-1.479a.41.41,0,0,0-.575-.425,1.658,1.658,0,0,0-1.108,1.24c-.083.358.048.633.5.538a2.092,2.092,0,0,0,1.185-1.348Zm-5.876,1.572a.807.807,0,0,0,.538-.269,3.331,3.331,0,0,0,.742-1.166c.059-.153.238-.312.054-.476a.446.446,0,0,0-.559-.009,2.169,2.169,0,0,0-.98,1.58c-.027.19.05.355.2.344Zm-8.908.91a2.021,2.021,0,0,0-1.444,1.882,3.951,3.951,0,0,0,1.443-1.878Z" transform="translate(-816.86 -207.001)"/>
      <path id="Path_798" data-name="Path 798" class="cls-6" d="M832.943,210.12H801.857a3.227,3.227,0,0,1-3.227-3.227v-8.066a3.227,3.227,0,0,1,3.227-3.227h31.088a3.227,3.227,0,0,1,3.227,3.227v8.066A3.227,3.227,0,0,1,832.943,210.12Zm-31.088-13.982a2.689,2.689,0,0,0-2.689,2.689v8.066a2.689,2.689,0,0,0,2.689,2.689h31.088a2.689,2.689,0,0,0,2.689-2.689v-8.066a2.689,2.689,0,0,0-2.689-2.689H801.857Z" transform="translate(-798.63 -195.64)"/>
    </g>
  </g>
</svg>
