<svg id="Overskrifter" xmlns="http://www.w3.org/2000/svg" viewBox="0 0 635.97 492.11"><defs><style>.cls-1{fill:#f47e20;}.cls-2{fill:#80424c;}.cls-3{fill:#f4cb19;}.cls-4{fill:#47273c;}.cls-5{fill:#015e7a;}.cls-10,.cls-16,.cls-6,.cls-7,.cls-8,.cls-9{fill:none;stroke:#fff;}.cls-16,.cls-6{stroke-miterlimit:2.61;}.cls-10,.cls-6,.cls-7,.cls-8,.cls-9{stroke-width:2px;}.cls-10,.cls-16,.cls-7,.cls-8,.cls-9{stroke-linecap:round;}.cls-7,.cls-8{stroke-linejoin:round;}.cls-10,.cls-7{fill-rule:evenodd;}.cls-10,.cls-9{stroke-linejoin:bevel;}.cls-11{fill:#006256;}.cls-12{fill:#00483a;}.cls-13{fill:#378076;}.cls-14{fill:#231f20;}.cls-15{fill:#4d4d4d;}.cls-16{stroke-width:0.25px;stroke-dasharray:0 0.51;}</style></defs><title>Oslo modal split</title><path class="cls-1" d="M114.57,118.33v0a1.94,1.94,0,0,0-1.65-2.19c-1,0-1.61,1-1.61,2.14v0c0,1.22.69,2.19,1.65,2.19S114.57,119.48,114.57,118.33Z"/><path class="cls-1" d="M122,123.77c-1,0-1.61,1-1.61,2.14v0c0,1.22.69,2.19,1.65,2.19s1.61-1,1.61-2.14v0A1.94,1.94,0,0,0,122,123.77Z"/><path class="cls-1" d="M120.45,98.72a138.68,138.68,0,0,0-35.79,24.36l39.22,41.7a81.31,81.31,0,0,1,20.93-14.25ZM107.11,124.8c0,3-2.27,5.08-5.49,5.08a7.6,7.6,0,0,1-4.8-1.63,1.3,1.3,0,0,1-.54-1A1.28,1.28,0,0,1,97.54,126a1.16,1.16,0,0,1,.77.26,5,5,0,0,0,3.26,1.26,2.63,2.63,0,0,0,2.92-2.59v0c0-1.54-1.29-2.49-3.11-2.49a10.21,10.21,0,0,0-2.57.51,2.07,2.07,0,0,1-1.24-.51,1.25,1.25,0,0,1-.51-1.16l0.32-5.4a1.21,1.21,0,0,1,1.2-1.18h6.8a1.19,1.19,0,0,1,1.18,1.18,1.17,1.17,0,0,1-1.18,1.16H99.73l-0.24,3.52a6.38,6.38,0,0,1,2.38-.43c2.94,0,5.23,1.54,5.23,4.72v0Zm2.3-6.47v0a3.62,3.62,0,0,1,3.56-3.84,3.57,3.57,0,0,1,3.52,3.79v0A3.55,3.55,0,1,1,109.4,118.33Zm3.11,11.41a0.82,0.82,0,0,1-.84-0.84,1,1,0,0,1,.19-0.56l9.84-13.44a0.82,0.82,0,0,1,.73-0.39,0.84,0.84,0,0,1,.86.84,1,1,0,0,1-.19.56l-9.84,13.44A0.88,0.88,0,0,1,112.51,129.73ZM122,129.8a3.58,3.58,0,0,1-3.52-3.79v0a3.55,3.55,0,1,1,7.07,0v0A3.63,3.63,0,0,1,122,129.8Z"/><path class="cls-2" d="M53.6,230.47H41.13q0.3,6.42,1.17,12.68H53.6V230.47Z"/><path class="cls-2" d="M54.74,230.51v12.63h13.8V230.51H54.74Z"/><path class="cls-2" d="M83.38,230.49H69.66v12.68H83.38V230.49Z"/><path class="cls-2" d="M84.54,230.64v12.58H94.69C96.51,232.3,90.36,229.4,84.54,230.64Z"/><path class="cls-3" d="M275.9,146.79v-0.05c0-1.22-.68-2.29-1.72-2.29s-1.66,1-1.66,2.24v0.05c0,1.22.68,2.29,1.72,2.29S275.9,148,275.9,146.79Z"/><path class="cls-3" d="M179.4,85.56a137.88,137.88,0,0,0-58.95,13.15l24.38,51.81A81.2,81.2,0,0,1,260.59,224h47.15a4.46,4.46,0,0,1-4-2.32L295.45,208h0a8.24,8.24,0,0,1-.81-2h0l-2.08-8.92a0.22,0.22,0,0,0-.34-0.06l-8.77,8a1.41,1.41,0,0,0-.18.32l-2.34,13.33c0,0.15-.05.33-0.08,0.5h0a4.21,4.21,0,0,1-4.17,2.87,4,4,0,0,1-4.27-3.73,6.18,6.18,0,0,1,.17-1c0.79-4.79,2.19-12.37,2.19-12.37l0.18-.84h0a6,6,0,0,1,2.23-4l9.54-8.66a0.86,0.86,0,0,0,.23-0.51l-3-12.7c-0.13-.24-0.28-0.09-0.43.24-0.34,1.12-.82,3.1-1.8,3.8L272,188.86c-3.31,1.28-5.35-1.61-3.49-3.64l9.75-6.62c1.07-.62,1.65-8.2,3.69-11.3h0a3.61,3.61,0,0,1,1-1.41,8.78,8.78,0,0,1,5.25-1.49,10.05,10.05,0,0,1,5.28,1.47l10.66,8.4h0a4.13,4.13,0,0,1,1.66,2.57h0l2.7,12a3.58,3.58,0,0,1,.09.6,2.54,2.54,0,0,1-2.69,2.35,2.59,2.59,0,0,1-2.67-2.05l-2.66-11.85a0.64,0.64,0,0,0-.22-0.3l-4-3.12c-0.28-.16-0.35-0.07-0.33.14l3.26,14.05h0l3.59,15.4c0.09,0.28.2,0.54,0.31,0.79l8.14,13.36a3.8,3.8,0,0,1,.71,1.91h0a4.15,4.15,0,0,1-4.27,3.88h10.09A138.43,138.43,0,0,0,179.4,85.56Zm71.51,69.28c0,3.43-2.5,6-6.55,6a8.9,8.9,0,0,1-6-2.08,2,2,0,0,1-.68-1.43,2,2,0,0,1,1.92-1.92,1.9,1.9,0,0,1,1.27.49,5.19,5.19,0,0,0,3.56,1.35A2.28,2.28,0,0,0,247,155V155c0-1.48-1.33-2.31-3.56-2.31H242.8a1.73,1.73,0,0,1-1.72-1.72,2.26,2.26,0,0,1,.86-1.64l3.54-3.56h-5.59a1.72,1.72,0,0,1,0-3.43h8.87a1.81,1.81,0,0,1,2,1.77,2.9,2.9,0,0,1-1.2,2.24L246,149.7c2.47,0.42,4.89,1.72,4.89,5.1v0.05Zm14.66,5.64H255.7a1.92,1.92,0,0,1-2.16-1.9,2.53,2.53,0,0,1,1-2l5.17-4.24c2.26-1.85,3.15-2.86,3.15-4.37a2.23,2.23,0,0,0-2.44-2.37,3.85,3.85,0,0,0-3,1.59,1.84,1.84,0,0,1-3.17-1.25,2,2,0,0,1,.47-1.25,7.16,7.16,0,0,1,5.93-2.68c3.77,0,6.27,2.21,6.27,5.62v0.05c0,3-1.56,4.55-4.78,7l-3,2.29h6.34a1.74,1.74,0,0,1,1.74,1.74A1.72,1.72,0,0,1,265.58,160.49Zm4.21-13.7v-0.05a4.43,4.43,0,0,1,4.45-4.65,4.37,4.37,0,0,1,4.39,4.6v0.05a4.44,4.44,0,0,1-4.45,4.65A4.37,4.37,0,0,1,269.79,146.79ZM275,160.1a1.32,1.32,0,0,1-1.07.55,1.22,1.22,0,0,1-1.22-1.22,1.45,1.45,0,0,1,.29-0.83l11.62-15.91a1.32,1.32,0,0,1,1.07-.55,1.22,1.22,0,0,1,1.22,1.22,1.29,1.29,0,0,1-.29.83Zm11.74,2.84a6.08,6.08,0,0,1-6.13-6,5.92,5.92,0,0,1,1-3.25,4.25,4.25,0,0,1,1.67-1.7,6.18,6.18,0,0,1,3.49-1.07,6.09,6.09,0,0,1,6.13,5.79v0.23A6.08,6.08,0,0,1,286.73,162.94Z"/><path class="cls-4" d="M224.52,326.93c-0.33.75-1,2.39-.76,2.65s1.13-.39,2.07-1l19-11.79-4.18-7.62A28.28,28.28,0,0,0,224.52,326.93Z"/><path class="cls-4" d="M243.1,308.27l4.49,6.77,11.12-6.72,0-.19A26.75,26.75,0,0,0,243.1,308.27Z"/><path class="cls-4" d="M205.59,351.45c-1.41,0-2.25,1.38-2.25,3v0.06c0,1.71,1,3.06,2.31,3.06s2.25-1.38,2.25-3v-0.06C207.9,352.83,206.94,351.45,205.59,351.45Z"/><path class="cls-4" d="M195.21,343.83v-0.06c0-1.68-1-3.06-2.31-3.06s-2.25,1.38-2.25,3v0.06c0,1.71,1,3.06,2.31,3.06S195.21,345.45,195.21,343.83Z"/><path class="cls-2" d="M123.84,164.82L84.65,123.09A138,138,0,0,0,41,224c0,1.37,0,2.74.07,4.11H86.53c6.57,0,10.56,4,10.59,10.54,0,5.65,0,11.3,0,17,0,0.69-.06,1.38-0.1,2.19H88.61c-0.62-5.5-3.34-8.48-7.73-8.62-4.61-.14-7.39,2.7-8.32,8.62H45.14a138,138,0,0,0,27.61,54.45l33.62-27.82a4.55,4.55,0,0,1-2.45-4.19v-0.05a4.39,4.39,0,0,1,4.32-4.65,4.25,4.25,0,0,1,4.2,3.88l4.42-3.65A81.15,81.15,0,0,1,123.84,164.82ZM71.67,284.61H61.35a1.54,1.54,0,0,1-1.72-1.51,2,2,0,0,1,.83-1.59l5.59-4.76c2.5-2.11,3.41-3.28,3.41-4.91A2.73,2.73,0,0,0,66.53,269c-1.46,0-2.47.68-3.59,2a1.47,1.47,0,0,1-2.57-1,1.6,1.6,0,0,1,.36-1,7,7,0,0,1,6-2.94c3.56,0,6,2.18,6,5.43v0.05c0,2.86-1.51,4.42-4.73,7l-3.74,3.12h7.38A1.4,1.4,0,1,1,71.67,284.61Zm9-33.74a6.38,6.38,0,0,1,6.45,6.42,6.5,6.5,0,0,1-6.37,6.35,6.37,6.37,0,0,1-6.39-6.48A6.25,6.25,0,0,1,80.72,250.87Zm8.4,29.66h-1.4v2.7a1.53,1.53,0,0,1-3.07,0v-2.7H76.51A1.51,1.51,0,0,1,74.95,279a2.5,2.5,0,0,1,.7-1.69l8.55-10.14a2.26,2.26,0,0,1,2-1,1.54,1.54,0,0,1,1.56,1.53V277.9h1.4a1.31,1.31,0,0,1,1.33,1.33A1.29,1.29,0,0,1,89.12,280.53Zm19.6-14.25a1,1,0,0,1,1,1,1.18,1.18,0,0,1-.23.68L97.6,284.27a1.07,1.07,0,0,1-.91.47,1,1,0,0,1-1-1,1.17,1.17,0,0,1,.23-0.68l11.93-16.3A1,1,0,0,1,108.73,266.28Zm-7.23,4.52v0.05a4.3,4.3,0,1,1-8.58.05v-0.05a4.39,4.39,0,0,1,4.32-4.65A4.33,4.33,0,0,1,101.5,270.8Z"/><polygon class="cls-2" points="84.65 277.9 84.65 270.7 78.67 277.9 84.65 277.9"/><path class="cls-2" d="M110.18,280.22v-0.05c0-1.46-.83-2.65-2-2.65s-1.95,1.2-1.95,2.6v0.05c0,1.48.83,2.65,2,2.65h0.08l1.66-1.37A3.54,3.54,0,0,0,110.18,280.22Z"/><path class="cls-2" d="M95.23,270.8v0.05c0,1.48.83,2.65,2,2.65s1.95-1.2,1.95-2.6v-0.05c0-1.46-.83-2.65-2-2.65S95.23,269.4,95.23,270.8Z"/><path class="cls-4" d="M110.15,280.71l-2.42,2a1.65,1.65,0,0,0,.5.09A2.1,2.1,0,0,0,110.15,280.71Z"/><path class="cls-4" d="M250.68,262.88a81.19,81.19,0,0,1-134.14,12.49l-4.21,3.52a5.19,5.19,0,0,1,.16,1.23v0.05a4.4,4.4,0,0,1-4.32,4.65,4.08,4.08,0,0,1-2.19-.63L72.61,312.06a138.48,138.48,0,0,0,133.26,47.81h-0.28a5,5,0,0,1-4.92-5.31v-0.06a5,5,0,1,1,9.9-.06v0.06a5.25,5.25,0,0,1-3.34,5.09,138.62,138.62,0,0,0,93.54-69ZM172.8,353.34c0,3.87-3,6.66-7.35,6.66a9.84,9.84,0,0,1-7.11-2.73,1.77,1.77,0,0,1-.6-1.32,1.79,1.79,0,0,1,1.77-1.77,1.77,1.77,0,0,1,1.23.48,6.39,6.39,0,0,0,4.77,2c2.07,0,3.63-1.26,3.63-3.18v-0.06c0-2.07-1.89-3.24-4.83-3.24h-0.75A1.6,1.6,0,0,1,162,348.6a2.1,2.1,0,0,1,.78-1.5l4.92-5.25h-7.62a1.61,1.61,0,1,1,0-3.21h10.74a1.65,1.65,0,0,1,1.83,1.62,2.68,2.68,0,0,1-1.05,2l-4.95,5.13c3.18,0.39,6.18,2,6.18,5.88v0.06ZM183.66,358a1.82,1.82,0,0,1-1.83,1.83A1.84,1.84,0,0,1,180,358V342.12l-2.16.66a2.7,2.7,0,0,1-.66.09,1.6,1.6,0,0,1-.39-3.15l3.18-1a6.41,6.41,0,0,1,1.8-.33h0.06a1.8,1.8,0,0,1,1.83,1.83V358ZM188,343.83v-0.06a5.06,5.06,0,0,1,5-5.37,5,5,0,0,1,4.92,5.31v0.06A5,5,0,1,1,188,343.83Zm19.17-3.39-13.77,18.81a1.23,1.23,0,0,1-1,.54,1.15,1.15,0,0,1-1.17-1.17,1.35,1.35,0,0,1,.27-0.78L205.2,339a1.14,1.14,0,0,1,1-.54,1.18,1.18,0,0,1,1.2,1.17A1.36,1.36,0,0,1,207.15,340.44Zm19.69,13.11a7.75,7.75,0,1,1,2.62-10.64A7.75,7.75,0,0,1,226.84,353.56Zm46-27.81a7.75,7.75,0,1,1,2.63-10.64A7.76,7.76,0,0,1,272.87,325.75ZM277,315.17c-0.1.1-.18,0.23-0.33,0.16-0.11-.23-0.24-0.46-0.37-0.69a8.65,8.65,0,1,0-13,11.09,13.14,13.14,0,0,1-2,1.3q-13,7.87-26,15.7c-1.31.79-2.65,1.54-4,2.31a8.65,8.65,0,1,0-15.85,6.36c0.14,0.23.28,0.44,0.44,0.65a24.74,24.74,0,0,1-4.06-3.35,2.42,2.42,0,0,1-.64-1.2c0.24-2.11.38-4.24,0.74-6.33h0l0-.14a12.58,12.58,0,0,1,3.08-5.57,51.28,51.28,0,0,1,4.09-3.49c0.59-.46,1.15-0.95,1.69-1.46a3,3,0,0,0,.84-1.39,37.76,37.76,0,0,1,4.55-9.76,40.21,40.21,0,0,1,7.33-7.63c0.47-.35,3.6-2.4,4-2.63A30.87,30.87,0,0,1,255.18,305c3.52,0.16,7,.73,10.46,1.22a6.15,6.15,0,0,0,1.43,0,11.6,11.6,0,0,1,10.53,4.41,0.35,0.35,0,0,0,.3.26l0.72,1.19a2.46,2.46,0,0,1-.9,2.29C277.45,314.65,277.22,314.91,277,315.17Z"/><path class="cls-5" d="M280.87,261.21c-0.94,0-1.5.92-1.5,2v0a1.8,1.8,0,0,0,1.54,2c0.94,0,1.5-.92,1.5-2v0A1.81,1.81,0,0,0,280.87,261.21Z"/><path class="cls-5" d="M273.95,256.13v0a1.81,1.81,0,0,0-1.54-2c-0.94,0-1.5.92-1.5,2v0a1.8,1.8,0,0,0,1.54,2C273.39,258.13,273.95,257.21,273.95,256.13Z"/><path class="cls-5" d="M289.87,243.53a3,3,0,0,0-.93.86,1.53,1.53,0,0,0,1,.12l10.28-.12,0.17-4A13,13,0,0,0,289.87,243.53Z"/><path class="cls-5" d="M261.67,259.77a2.58,2.58,0,0,0-2.84,2.46v0a2.62,2.62,0,0,0,2.9,2.5,2.53,2.53,0,0,0,2.8-2.52v0C264.53,260.81,263.41,259.77,261.67,259.77Z"/><path class="cls-5" d="M259.93,234.16a80.64,80.64,0,0,1-9.38,28.94l50.17,27.58a137.49,137.49,0,0,0,16-49.34Zm7.05,28c0,2.78-2.26,4.76-5.2,4.76a5.22,5.22,0,0,1-3.9-1.48c-1.06-1.06-1.7-2.52-1.7-5.34v0c0-4.28,2-7.62,6-7.62a6.09,6.09,0,0,1,3.5,1,1.18,1.18,0,0,1,.62,1.06,1.16,1.16,0,0,1-1.18,1.14,1.32,1.32,0,0,1-.62-0.18,4.09,4.09,0,0,0-2.4-.78c-2.08,0-3.24,1.88-3.36,4.44a4.47,4.47,0,0,1,3.36-1.4c2.7,0,4.88,1.6,4.88,4.4v0Zm2.14-6v0a3.38,3.38,0,0,1,3.32-3.58,3.33,3.33,0,0,1,3.28,3.54v0A3.31,3.31,0,1,1,269.12,256.13Zm15.06,7.12a3.39,3.39,0,0,1-3.32,3.58,3.35,3.35,0,0,1-3.28-3.54v0a3.31,3.31,0,1,1,6.6,0v0Zm0.27-8.7a3.54,3.54,0,0,1-2.41-1,1,1,0,0,1-.13.28l-9.18,12.54a0.82,0.82,0,0,1-.7.36,0.77,0.77,0,0,1-.78-0.78,0.9,0.9,0,0,1,.18-0.52l9.18-12.54a0.76,0.76,0,0,1,.67-0.36,3.51,3.51,0,0,1-.39-1.58A3.56,3.56,0,1,1,284.46,254.55Zm24.71,0a3.56,3.56,0,1,1,3.56-3.56A3.56,3.56,0,0,1,309.16,254.55Zm4.6-3.32-0.47.13c-0.06,0-.13,0-0.17,0s0-.24,0-0.36a4,4,0,1,0-7.74,1.28,6,6,0,0,1-1.1,0h-14c-0.7,0-1.41,0-2.11,0a4,4,0,1,0-7.74-1.27c0,0.12,0,.24,0,0.36a11.37,11.37,0,0,1-.8-2.28,1.11,1.11,0,0,1,0-.62c0.6-.77,1.16-1.58,1.8-2.31h0l0.05,0a5.78,5.78,0,0,1,2.53-1.46,23.54,23.54,0,0,1,2.44-.4c0.34,0,.68-0.1,1-0.17a1.38,1.38,0,0,0,.66-0.35,17.35,17.35,0,0,1,4.11-2.76,18.48,18.48,0,0,1,4.69-1.26c0.27,0,2-.09,2.2-0.09a14.19,14.19,0,0,1,7.91,2.58c1.35,0.9,2.57,1.94,3.82,3a2.83,2.83,0,0,0,.55.35,5.33,5.33,0,0,1,3.09,4.23,0.16,0.16,0,0,0,.05.17v0.64A1.13,1.13,0,0,1,313.76,251.24Z"/><path class="cls-5" d="M301.61,240.6l0,0.8a1.54,1.54,0,0,1,.93-0.31,1.52,1.52,0,0,1,1.53,1.45v0.06a1.52,1.52,0,0,1-1.53,1.51,1.54,1.54,0,0,1-.82-0.24l0,0.47h6l0-.08A12.29,12.29,0,0,0,301.61,240.6Z"/><circle class="cls-6" cx="121.5" cy="158.35" r="5.14" transform="matrix(0.81, -0.58, 0.58, 0.81, -69.66, 100.95)"/><circle class="cls-6" cx="128.98" cy="152.96" r="1.25" transform="translate(-65.1 104.31) rotate(-35.79)"/><circle class="cls-6" cx="137.74" cy="146.64" r="5.14" transform="translate(-59.75 108.24) rotate(-35.79)"/><polygon class="cls-7" points="119.47 147.5 121.22 157.66 128.94 152.91 131.16 144.08 128.16 141.38 119.47 147.5"/><polyline class="cls-7" points="128.94 152.91 119.47 147.5 116.91 145.9"/><line class="cls-8" x1="137.74" y1="146.64" x2="131.16" y2="144.08"/><line class="cls-9" x1="115.9" y1="146.45" x2="120.94" y2="142.72"/><path class="cls-10" d="M127.23,141.56c0.6-.82,2.06-5.5-2.94-2"/><path class="cls-11" d="M416.59,118.33v0a1.94,1.94,0,0,0-1.65-2.19c-1,0-1.61,1-1.61,2.14v0c0,1.22.69,2.19,1.65,2.19S416.59,119.48,416.59,118.33Z"/><path class="cls-11" d="M424,123.77c-1,0-1.61,1-1.61,2.14v0c0,1.22.69,2.19,1.65,2.19s1.61-1,1.61-2.14v0A1.94,1.94,0,0,0,424,123.77Z"/><path class="cls-11" d="M422.47,98.72a138.68,138.68,0,0,0-35.79,24.36l39.22,41.7a81.31,81.31,0,0,1,20.93-14.25ZM409.12,124.8c0,3-2.27,5.08-5.49,5.08a7.6,7.6,0,0,1-4.8-1.63,1.3,1.3,0,0,1-.54-1,1.28,1.28,0,0,1,1.26-1.27,1.16,1.16,0,0,1,.77.26,5,5,0,0,0,3.26,1.26,2.63,2.63,0,0,0,2.92-2.59v0c0-1.54-1.29-2.49-3.11-2.49a10.21,10.21,0,0,0-2.57.51,2.07,2.07,0,0,1-1.24-.51,1.25,1.25,0,0,1-.51-1.16l0.32-5.4a1.21,1.21,0,0,1,1.2-1.18h6.8a1.19,1.19,0,0,1,1.18,1.18,1.17,1.17,0,0,1-1.18,1.16h-5.64l-0.24,3.52a6.38,6.38,0,0,1,2.38-.43c2.94,0,5.23,1.54,5.23,4.72v0Zm2.3-6.47v0a3.62,3.62,0,0,1,3.56-3.84,3.57,3.57,0,0,1,3.52,3.79v0A3.55,3.55,0,1,1,411.42,118.33Zm3.11,11.41a0.82,0.82,0,0,1-.84-0.84,1,1,0,0,1,.19-0.56l9.84-13.44a0.82,0.82,0,0,1,.73-0.39,0.84,0.84,0,0,1,.86.84,1,1,0,0,1-.19.56l-9.84,13.44A0.88,0.88,0,0,1,414.53,129.73ZM424,129.8a3.58,3.58,0,0,1-3.52-3.79v0a3.55,3.55,0,1,1,7.07,0v0A3.63,3.63,0,0,1,424,129.8Z"/><path class="cls-12" d="M355.62,230.47H343.15q0.3,6.42,1.17,12.68h11.3V230.47Z"/><path class="cls-12" d="M356.75,230.51v12.63h13.8V230.51h-13.8Z"/><path class="cls-12" d="M385.91,230.48H372.79V242.6h13.12V230.48Z"/><path class="cls-12" d="M387,230.63v12h9.7C398.46,232.22,392.59,229.44,387,230.63Z"/><path class="cls-13" d="M577.92,146.79v-0.05c0-1.22-.68-2.29-1.72-2.29s-1.66,1-1.66,2.24v0.05c0,1.22.68,2.29,1.72,2.29S577.92,148,577.92,146.79Z"/><path class="cls-13" d="M481.42,85.56a137.88,137.88,0,0,0-58.95,13.15l24.38,51.81A81.2,81.2,0,0,1,562.61,224h47.15a4.46,4.46,0,0,1-4-2.32L597.46,208h0a8.24,8.24,0,0,1-.81-2h0l-2.08-8.92a0.22,0.22,0,0,0-.34-0.06l-8.77,8a1.41,1.41,0,0,0-.18.32l-2.34,13.33c0,0.15-.05.33-0.08,0.5h0a4.21,4.21,0,0,1-4.17,2.87,4,4,0,0,1-4.27-3.73,6.18,6.18,0,0,1,.17-1c0.79-4.79,2.19-12.37,2.19-12.37l0.18-.84h0a6,6,0,0,1,2.23-4l9.54-8.66a0.86,0.86,0,0,0,.23-0.51l-3-12.7c-0.13-.24-0.28-0.09-0.43.24-0.34,1.12-.82,3.1-1.8,3.8L574,188.86c-3.31,1.28-5.35-1.61-3.49-3.64l9.75-6.62c1.07-.62,1.65-8.2,3.69-11.3h0a3.61,3.61,0,0,1,1-1.41,8.78,8.78,0,0,1,5.25-1.49,10.05,10.05,0,0,1,5.28,1.47l10.66,8.4h0a4.13,4.13,0,0,1,1.66,2.57h0l2.7,12a3.58,3.58,0,0,1,.09.6,2.54,2.54,0,0,1-2.69,2.35,2.59,2.59,0,0,1-2.67-2.05l-2.66-11.85a0.64,0.64,0,0,0-.22-0.3l-4-3.12c-0.28-.16-0.35-0.07-0.33.14l3.26,14.05h0l3.59,15.4c0.09,0.28.2,0.54,0.31,0.79l8.14,13.36a3.8,3.8,0,0,1,.71,1.91h0a4.15,4.15,0,0,1-4.27,3.88h10.09A138.43,138.43,0,0,0,481.42,85.56Zm71.51,69.28c0,3.43-2.5,6-6.55,6a8.9,8.9,0,0,1-6-2.08,2,2,0,0,1-.68-1.43,2,2,0,0,1,1.92-1.92,1.9,1.9,0,0,1,1.27.49,5.19,5.19,0,0,0,3.56,1.35A2.28,2.28,0,0,0,549,155V155c0-1.48-1.33-2.31-3.56-2.31h-0.62a1.73,1.73,0,0,1-1.72-1.72,2.26,2.26,0,0,1,.86-1.64l3.54-3.56h-5.59a1.72,1.72,0,0,1,0-3.43h8.87a1.81,1.81,0,0,1,2,1.77,2.9,2.9,0,0,1-1.2,2.24L548,149.7c2.47,0.42,4.89,1.72,4.89,5.1v0.05Zm14.66,5.64h-9.88a1.92,1.92,0,0,1-2.16-1.9,2.53,2.53,0,0,1,1-2l5.17-4.24c2.26-1.85,3.15-2.86,3.15-4.37a2.23,2.23,0,0,0-2.44-2.37,3.85,3.85,0,0,0-3,1.59,1.84,1.84,0,0,1-3.17-1.25,2,2,0,0,1,.47-1.25,7.16,7.16,0,0,1,5.93-2.68c3.77,0,6.27,2.21,6.27,5.62v0.05c0,3-1.56,4.55-4.78,7l-3,2.29h6.34a1.74,1.74,0,0,1,1.74,1.74A1.72,1.72,0,0,1,567.6,160.49Zm4.21-13.7v-0.05a4.43,4.43,0,0,1,4.45-4.65,4.37,4.37,0,0,1,4.39,4.6v0.05a4.44,4.44,0,0,1-4.45,4.65A4.37,4.37,0,0,1,571.81,146.79ZM577,160.1a1.32,1.32,0,0,1-1.07.55,1.22,1.22,0,0,1-1.22-1.22,1.45,1.45,0,0,1,.29-0.83l11.62-15.91a1.32,1.32,0,0,1,1.07-.55,1.22,1.22,0,0,1,1.22,1.22,1.29,1.29,0,0,1-.29.83Zm11.74,2.84a6.08,6.08,0,0,1-6.13-6,5.92,5.92,0,0,1,1-3.25,4.25,4.25,0,0,1,1.67-1.7,6.18,6.18,0,0,1,3.49-1.07,6.09,6.09,0,0,1,6.13,5.79v0.23A6.08,6.08,0,0,1,588.75,162.94Z"/><path class="cls-14" d="M526.53,326.93c-0.33.75-1,2.39-.76,2.65s1.13-.39,2.07-1l19-11.79-4.18-7.62A28.28,28.28,0,0,0,526.53,326.93Z"/><path class="cls-14" d="M545.11,308.27L549.6,315l11.12-6.72,0-.19A26.75,26.75,0,0,0,545.11,308.27Z"/><path class="cls-14" d="M507.61,351.45c-1.41,0-2.25,1.38-2.25,3v0.06c0,1.71,1,3.06,2.31,3.06s2.25-1.38,2.25-3v-0.06C509.92,352.83,509,351.45,507.61,351.45Z"/><path class="cls-14" d="M497.23,343.83v-0.06c0-1.68-1-3.06-2.31-3.06s-2.25,1.38-2.25,3v0.06c0,1.71,1,3.06,2.31,3.06S497.23,345.45,497.23,343.83Z"/><path class="cls-12" d="M425.86,164.82l-39.19-41.73A138,138,0,0,0,343,224c0,1.37,0,2.74.07,4.11h45.48c6.57,0,10.56,4,10.59,10.54,0,5.65,0,11.3,0,17,0,0.69-.06,1.38-0.1,2.19h-8.43c-0.62-5.5-3.34-8.48-7.73-8.62-4.61-.14-7.39,2.7-8.32,8.62H347.15a138,138,0,0,0,27.61,54.45l33.62-27.82a4.55,4.55,0,0,1-2.45-4.19v-0.05a4.39,4.39,0,0,1,4.32-4.65,4.25,4.25,0,0,1,4.2,3.88l4.42-3.65A81.15,81.15,0,0,1,425.86,164.82ZM373.69,284.61H363.37a1.54,1.54,0,0,1-1.72-1.51,2,2,0,0,1,.83-1.59l5.59-4.76c2.5-2.11,3.41-3.28,3.41-4.91a2.73,2.73,0,0,0-2.94-2.83c-1.46,0-2.47.68-3.59,2a1.47,1.47,0,0,1-2.57-1,1.6,1.6,0,0,1,.36-1,7,7,0,0,1,6-2.94c3.56,0,6,2.18,6,5.43v0.05c0,2.86-1.51,4.42-4.73,7l-3.74,3.12h7.38A1.4,1.4,0,1,1,373.69,284.61Zm9-33.74a6.38,6.38,0,0,1,6.45,6.42,6.5,6.5,0,0,1-6.37,6.35,6.37,6.37,0,0,1-6.39-6.48A6.25,6.25,0,0,1,382.74,250.87Zm8.4,29.66h-1.4v2.7a1.53,1.53,0,0,1-3.07,0v-2.7h-8.14A1.51,1.51,0,0,1,377,279a2.5,2.5,0,0,1,.7-1.69l8.55-10.14a2.26,2.26,0,0,1,2-1,1.54,1.54,0,0,1,1.56,1.53V277.9h1.4a1.31,1.31,0,0,1,1.33,1.33A1.29,1.29,0,0,1,391.14,280.53Zm19.6-14.25a1,1,0,0,1,1,1,1.18,1.18,0,0,1-.23.68l-11.93,16.3a1.07,1.07,0,0,1-.91.47,1,1,0,0,1-1-1,1.17,1.17,0,0,1,.23-0.68l11.93-16.3A1,1,0,0,1,410.74,266.28Zm-7.23,4.52v0.05a4.3,4.3,0,1,1-8.58.05v-0.05a4.39,4.39,0,0,1,4.32-4.65A4.33,4.33,0,0,1,403.51,270.8Z"/><polygon class="cls-12" points="386.67 277.9 386.67 270.7 380.69 277.9 386.67 277.9"/><path class="cls-12" d="M412.2,280.22v-0.05c0-1.46-.83-2.65-2-2.65s-1.95,1.2-1.95,2.6v0.05c0,1.48.83,2.65,2,2.65h0.08l1.66-1.37A3.54,3.54,0,0,0,412.2,280.22Z"/><path class="cls-12" d="M397.25,270.8v0.05c0,1.48.83,2.65,2,2.65s1.95-1.2,1.95-2.6v-0.05c0-1.46-.83-2.65-2-2.65S397.25,269.4,397.25,270.8Z"/><path class="cls-14" d="M412.16,280.71l-2.42,2a1.65,1.65,0,0,0,.5.09A2.1,2.1,0,0,0,412.16,280.71Z"/><path class="cls-14" d="M552.7,262.88a81.19,81.19,0,0,1-134.14,12.49l-4.21,3.52a5.19,5.19,0,0,1,.16,1.23v0.05a4.4,4.4,0,0,1-4.32,4.65,4.08,4.08,0,0,1-2.19-.63l-33.38,27.88a138.48,138.48,0,0,0,133.26,47.81h-0.28a5,5,0,0,1-4.92-5.31v-0.06a5,5,0,1,1,9.9-.06v0.06a5.25,5.25,0,0,1-3.34,5.09,138.62,138.62,0,0,0,93.54-69Zm-77.88,90.46c0,3.87-3,6.66-7.35,6.66a9.84,9.84,0,0,1-7.11-2.73,1.77,1.77,0,0,1-.6-1.32,1.79,1.79,0,0,1,1.77-1.77,1.77,1.77,0,0,1,1.23.48,6.39,6.39,0,0,0,4.77,2c2.07,0,3.63-1.26,3.63-3.18v-0.06c0-2.07-1.89-3.24-4.83-3.24h-0.75A1.6,1.6,0,0,1,464,348.6a2.1,2.1,0,0,1,.78-1.5l4.92-5.25h-7.62a1.61,1.61,0,1,1,0-3.21h10.74a1.65,1.65,0,0,1,1.83,1.62,2.68,2.68,0,0,1-1.05,2l-4.95,5.13c3.18,0.39,6.18,2,6.18,5.88v0.06ZM485.68,358a1.82,1.82,0,0,1-1.83,1.83A1.84,1.84,0,0,1,482,358V342.12l-2.16.66a2.7,2.7,0,0,1-.66.09,1.6,1.6,0,0,1-.39-3.15l3.18-1a6.41,6.41,0,0,1,1.8-.33h0.06a1.8,1.8,0,0,1,1.83,1.83V358ZM490,343.83v-0.06a5.06,5.06,0,0,1,5-5.37,5,5,0,0,1,4.92,5.31v0.06A5,5,0,1,1,490,343.83Zm19.17-3.39L495.4,359.25a1.23,1.23,0,0,1-1,.54,1.15,1.15,0,0,1-1.17-1.17,1.35,1.35,0,0,1,.27-0.78L507.22,339a1.14,1.14,0,0,1,1-.54,1.18,1.18,0,0,1,1.2,1.17A1.36,1.36,0,0,1,509.17,340.44Zm19.69,13.11a7.75,7.75,0,1,1,2.62-10.64A7.75,7.75,0,0,1,528.86,353.56Zm46-27.81a7.75,7.75,0,1,1,2.63-10.64A7.76,7.76,0,0,1,574.89,325.75ZM579,315.17c-0.1.1-.18,0.23-0.33,0.16-0.11-.23-0.24-0.46-0.37-0.69a8.65,8.65,0,1,0-13,11.09,13.14,13.14,0,0,1-2,1.3q-13,7.87-26,15.7c-1.31.79-2.65,1.54-4,2.31a8.65,8.65,0,1,0-15.85,6.36c0.14,0.23.28,0.44,0.44,0.65a24.74,24.74,0,0,1-4.06-3.35,2.42,2.42,0,0,1-.64-1.2c0.24-2.11.38-4.24,0.74-6.33h0l0-.14a12.58,12.58,0,0,1,3.08-5.57,51.28,51.28,0,0,1,4.09-3.49c0.59-.46,1.15-0.95,1.69-1.46a3,3,0,0,0,.84-1.39,37.76,37.76,0,0,1,4.55-9.76,40.21,40.21,0,0,1,7.33-7.63c0.47-.35,3.6-2.4,4-2.63A30.87,30.87,0,0,1,557.19,305c3.52,0.16,7,.73,10.46,1.22a6.15,6.15,0,0,0,1.43,0,11.6,11.6,0,0,1,10.53,4.41,0.35,0.35,0,0,0,.3.26l0.72,1.19a2.46,2.46,0,0,1-.9,2.29C579.47,314.65,579.24,314.91,579,315.17Z"/><path class="cls-15" d="M582.88,261.21c-0.94,0-1.5.92-1.5,2v0a1.8,1.8,0,0,0,1.54,2c0.94,0,1.5-.92,1.5-2v0A1.81,1.81,0,0,0,582.88,261.21Z"/><path class="cls-15" d="M576,256.13v0a1.81,1.81,0,0,0-1.54-2c-0.94,0-1.5.92-1.5,2v0a1.8,1.8,0,0,0,1.54,2C575.4,258.13,576,257.21,576,256.13Z"/><path class="cls-15" d="M591.88,243.53a3,3,0,0,0-.93.86,1.53,1.53,0,0,0,1,.12l10.28-.12,0.17-4A13,13,0,0,0,591.88,243.53Z"/><path class="cls-15" d="M563.68,259.77a2.58,2.58,0,0,0-2.84,2.46v0a2.62,2.62,0,0,0,2.9,2.5,2.53,2.53,0,0,0,2.8-2.52v0C566.54,260.81,565.42,259.77,563.68,259.77Z"/><path class="cls-15" d="M562,234.16a80.64,80.64,0,0,1-9.38,28.94l50.17,27.58a137.49,137.49,0,0,0,16-49.34Zm7.05,28c0,2.78-2.26,4.76-5.2,4.76a5.22,5.22,0,0,1-3.9-1.48c-1.06-1.06-1.7-2.52-1.7-5.34v0c0-4.28,2-7.62,6-7.62a6.09,6.09,0,0,1,3.5,1,1.18,1.18,0,0,1,.62,1.06,1.16,1.16,0,0,1-1.18,1.14,1.32,1.32,0,0,1-.62-0.18,4.09,4.09,0,0,0-2.4-.78c-2.08,0-3.24,1.88-3.36,4.44a4.47,4.47,0,0,1,3.36-1.4c2.7,0,4.88,1.6,4.88,4.4v0Zm2.14-6v0a3.38,3.38,0,0,1,3.32-3.58,3.33,3.33,0,0,1,3.28,3.54v0A3.31,3.31,0,1,1,571.14,256.13Zm15.06,7.12a3.39,3.39,0,0,1-3.32,3.58,3.35,3.35,0,0,1-3.28-3.54v0a3.31,3.31,0,1,1,6.6,0v0Zm0.27-8.7a3.54,3.54,0,0,1-2.41-1,1,1,0,0,1-.13.28l-9.18,12.54a0.82,0.82,0,0,1-.7.36,0.77,0.77,0,0,1-.78-0.78,0.9,0.9,0,0,1,.18-0.52l9.18-12.54a0.76,0.76,0,0,1,.67-0.36,3.51,3.51,0,0,1-.39-1.58A3.56,3.56,0,1,1,586.47,254.55Zm24.71,0a3.56,3.56,0,1,1,3.56-3.56A3.56,3.56,0,0,1,611.18,254.55Zm4.6-3.32-0.47.13c-0.06,0-.13,0-0.17,0s0-.24,0-0.36a4,4,0,1,0-7.74,1.28,6,6,0,0,1-1.1,0h-14c-0.7,0-1.41,0-2.11,0A4,4,0,1,0,582.5,251c0,0.12,0,.24,0,0.36a11.37,11.37,0,0,1-.8-2.28,1.11,1.11,0,0,1,0-.62c0.6-.77,1.16-1.58,1.8-2.31h0l0.05,0a5.78,5.78,0,0,1,2.53-1.46,23.54,23.54,0,0,1,2.44-.4c0.34,0,.68-0.1,1-0.17a1.38,1.38,0,0,0,.66-0.35,17.35,17.35,0,0,1,4.11-2.76,18.48,18.48,0,0,1,4.69-1.26c0.27,0,2-.09,2.2-0.09a14.19,14.19,0,0,1,7.91,2.58c1.35,0.9,2.57,1.94,3.82,3a2.83,2.83,0,0,0,.55.35,5.33,5.33,0,0,1,3.09,4.23,0.16,0.16,0,0,0,.05.17v0.64A1.13,1.13,0,0,1,615.78,251.24Z"/><path class="cls-15" d="M603.62,240.6l0,0.8a1.54,1.54,0,0,1,.93-0.31,1.52,1.52,0,0,1,1.53,1.45v0.06a1.52,1.52,0,0,1-1.53,1.51,1.54,1.54,0,0,1-.82-0.24l0,0.47h6l0-.08A12.29,12.29,0,0,0,603.62,240.6Z"/><circle class="cls-6" cx="423.52" cy="158.35" r="5.14" transform="matrix(0.81, -0.58, 0.58, 0.81, -12.63, 277.57)"/><circle class="cls-6" cx="431" cy="152.96" r="1.25" transform="translate(-8.07 280.93) rotate(-35.79)"/><circle class="cls-6" cx="439.75" cy="146.64" r="5.14" transform="translate(-2.72 284.86) rotate(-35.79)"/><polygon class="cls-7" points="421.49 147.5 423.24 157.66 430.95 152.91 433.18 144.08 430.18 141.38 421.49 147.5"/><polyline class="cls-7" points="430.95 152.91 421.49 147.5 418.93 145.9"/><line class="cls-8" x1="439.75" y1="146.64" x2="433.18" y2="144.08"/><line class="cls-9" x1="417.91" y1="146.45" x2="422.95" y2="142.72"/><path class="cls-10" d="M429.25,141.56c0.6-.82,2.06-5.5-2.94-2"/><path class="cls-16" d="M295.61,241.07a1.52,1.52,0,1,0,1.55,1.52v-0.06A1.54,1.54,0,0,0,295.61,241.07Z"/><path class="cls-5" d="M301.64,241.4a1.48,1.48,0,0,0,.1,2.46Z"/><path class="cls-16" d="M597.63,241.07a1.52,1.52,0,1,0,1.55,1.52v-0.06A1.54,1.54,0,0,0,597.63,241.07Z"/><path class="cls-15" d="M603.66,241.4a1.48,1.48,0,0,0,.1,2.46Z"/></svg>