<svg id="Diagrams" xmlns="http://www.w3.org/2000/svg" viewBox="0 0 730 500"><defs><style>.cls-1{fill:#015e7a;}.cls-2{fill:#ae988e;}.cls-3{fill:#4e5d79;}.cls-4{fill:#f4cb19;}.cls-5{fill:#97ad38;}.cls-6{fill:#efeae8;}.cls-7{fill:#dfd6d2;}.cls-13,.cls-14,.cls-15,.cls-16,.cls-17,.cls-18,.cls-19,.cls-20,.cls-21,.cls-22,.cls-23,.cls-24,.cls-8{fill:#fff;}.cls-8{stroke:#015e7a;stroke-miterlimit:10;stroke-width:0.5px;}.cls-9{fill:#a96b70;}.cls-10{fill:#cec1bb;}.cls-11{fill:#80424c;}.cls-12{fill:#beada5;}.cls-13{font-size:22.16px;}.cls-13,.cls-14,.cls-15,.cls-16,.cls-17,.cls-18,.cls-19,.cls-20,.cls-21,.cls-22,.cls-23,.cls-24{font-family:Gotham Rounded;font-weight:700;}.cls-14{font-size:12.94px;}.cls-15{font-size:18px;}.cls-16{font-size:20px;}.cls-17{font-size:22px;}.cls-18{font-size:24px;}.cls-19{font-size:26px;}.cls-20{font-size:10.51px;}.cls-21{font-size:11.68px;}.cls-22{font-size:12.85px;}.cls-23{font-size:14.02px;}.cls-24{font-size:15.19px;}</style></defs><title>Oslo time</title><path class="cls-1" d="M26.54,262.41A156.56,156.56,0,0,0,183.1,419V105.85A156.56,156.56,0,0,0,26.54,262.41Z"/><circle class="cls-2" cx="183.1" cy="262.41" r="96.13"/><circle class="cls-3" cx="183.1" cy="262.41" r="2.01"/><path class="cls-4" d="M245.63,154.1a124.47,124.47,0,0,0-62.53-16.74v125Z"/><path class="cls-1" d="M337.57,159.83A91.45,91.45,0,0,0,429,251.28V68.38A91.45,91.45,0,0,0,337.57,159.83Z"/><circle class="cls-2" cx="429.02" cy="159.83" r="56.15"/><circle class="cls-3" cx="429.02" cy="159.83" r="1.18"/><path class="cls-4" d="M465.55,96.56A72.7,72.7,0,0,0,429,86.79v73Z"/><path class="cls-1" d="M538.9,159.83a91.45,91.45,0,0,0,91.45,91.45V68.38A91.45,91.45,0,0,0,538.9,159.83Z"/><circle class="cls-2" cx="630.35" cy="159.83" r="56.15"/><circle class="cls-3" cx="630.35" cy="159.83" r="1.18"/><path class="cls-4" d="M666.88,96.56a72.7,72.7,0,0,0-36.53-9.78v73Z"/><path class="cls-1" d="M337.57,368.94A91.45,91.45,0,0,0,429,460.39V277.49A91.45,91.45,0,0,0,337.57,368.94Z"/><circle class="cls-2" cx="429.02" cy="368.94" r="56.15"/><circle class="cls-3" cx="429.02" cy="368.94" r="1.18"/><path class="cls-4" d="M465.55,305.67A72.7,72.7,0,0,0,429,295.9v73Z"/><path class="cls-1" d="M538.9,368.94a91.45,91.45,0,0,0,91.45,91.45V277.49A91.45,91.45,0,0,0,538.9,368.94Z"/><circle class="cls-2" cx="630.35" cy="368.94" r="56.15"/><circle class="cls-3" cx="630.35" cy="368.94" r="1.18"/><path class="cls-4" d="M666.88,305.67a72.7,72.7,0,0,0-36.53-9.78v73Z"/><path class="cls-5" d="M183.1,262.41l114.45-66.08A132.78,132.78,0,0,0,249.17,148Z"/><path class="cls-6" d="M231.17,179.15a95.69,95.69,0,0,0-48.07-12.87v96.13Z"/><path class="cls-7" d="M266.36,214.34a96.6,96.6,0,0,0-35.19-35.19L183.1,262.41Z"/><path class="cls-8" d="M183.1,214.35s-6.56,45.17-6.56,48.7a6.57,6.57,0,0,0,13.12,0C189.66,259.52,183.1,214.35,183.1,214.35Z"/><path class="cls-9" d="M183.1,262.41l121.26,70a140.15,140.15,0,0,0,0-140Z"/><path class="cls-10" d="M266.36,310.49a96.23,96.23,0,0,0,0-96.15L183.1,262.41Z"/><path class="cls-11" d="M310.86,336.17L183.1,262.41v147.5A147.44,147.44,0,0,0,310.86,336.17Z"/><path class="cls-12" d="M183.1,262.41v96.13a96.09,96.09,0,0,0,83.27-48.06Z"/><path class="cls-8" d="M232.92,291.46S191,258.08,187.38,256a7.71,7.71,0,0,0-7.76,13.32C183.2,271.39,232.92,291.46,232.92,291.46Z"/><circle class="cls-3" cx="183.1" cy="262.41" r="2.01" transform="translate(-135.71 289.77) rotate(-60)"/><path class="cls-5" d="M429,159.83l66.85-38.6A77.56,77.56,0,0,0,467.62,93Z"/><path class="cls-6" d="M457.1,111.19A55.89,55.89,0,0,0,429,103.68v56.15Z"/><path class="cls-7" d="M477.66,131.75a56.43,56.43,0,0,0-20.56-20.56L429,159.83Z"/><path class="cls-8" d="M429,131.75s-3.83,26.39-3.83,28.45a3.84,3.84,0,0,0,7.66,0C432.85,158.14,429,131.75,429,131.75Z"/><path class="cls-9" d="M429,159.83l70.83,40.9a81.86,81.86,0,0,0,0-81.79Z"/><path class="cls-10" d="M477.66,187.91a56.21,56.21,0,0,0,0-56.16L429,159.83Z"/><path class="cls-11" d="M503.65,202.92L429,159.83V246A86.12,86.12,0,0,0,503.65,202.92Z"/><path class="cls-12" d="M429,159.83V216a56.13,56.13,0,0,0,48.64-28.07Z"/><path class="cls-8" d="M458.12,176.8s-24.51-19.5-26.6-20.72a4.51,4.51,0,0,0-4.54,7.78C429.08,165.08,458.12,176.8,458.12,176.8Z"/><circle class="cls-3" cx="429.02" cy="159.83" r="1.18" transform="translate(76.09 451.46) rotate(-60)"/><path class="cls-5" d="M630.35,159.83l66.85-38.6A77.56,77.56,0,0,0,669,93Z"/><path class="cls-6" d="M658.44,111.19a55.89,55.89,0,0,0-28.08-7.52v56.15Z"/><path class="cls-7" d="M679,131.75a56.43,56.43,0,0,0-20.56-20.56l-28.08,48.64Z"/><path class="cls-8" d="M630.35,131.75s-3.83,26.39-3.83,28.45a3.84,3.84,0,0,0,7.66,0C634.19,158.14,630.35,131.75,630.35,131.75Z"/><path class="cls-9" d="M630.35,159.83l70.83,40.9a81.86,81.86,0,0,0,0-81.79Z"/><path class="cls-10" d="M679,187.91a56.21,56.21,0,0,0,0-56.16l-48.64,28.08Z"/><path class="cls-11" d="M705,202.92l-74.63-43.09V246A86.12,86.12,0,0,0,705,202.92Z"/><path class="cls-12" d="M630.35,159.83V216A56.13,56.13,0,0,0,679,187.91Z"/><path class="cls-8" d="M659.46,176.8s-24.51-19.5-26.6-20.72a4.51,4.51,0,0,0-4.54,7.78C630.41,165.08,659.46,176.8,659.46,176.8Z"/><circle class="cls-3" cx="630.35" cy="159.83" r="1.18" transform="translate(176.76 625.82) rotate(-60)"/><path class="cls-5" d="M429,368.94l66.85-38.6a77.56,77.56,0,0,0-28.25-28.25Z"/><path class="cls-6" d="M457.1,320.3A55.89,55.89,0,0,0,429,312.79v56.15Z"/><path class="cls-7" d="M477.66,340.86A56.43,56.43,0,0,0,457.1,320.3L429,368.94Z"/><path class="cls-8" d="M429,340.86s-3.83,26.39-3.83,28.45a3.84,3.84,0,0,0,7.66,0C432.85,367.25,429,340.86,429,340.86Z"/><path class="cls-9" d="M429,368.94l70.83,40.9a81.86,81.86,0,0,0,0-81.79Z"/><path class="cls-10" d="M477.66,397a56.21,56.21,0,0,0,0-56.16L429,368.94Z"/><path class="cls-11" d="M503.65,412L429,368.94V455.1A86.12,86.12,0,0,0,503.65,412Z"/><path class="cls-12" d="M429,368.94v56.15A56.13,56.13,0,0,0,477.66,397Z"/><path class="cls-8" d="M458.12,385.91s-24.51-19.5-26.6-20.72A4.51,4.51,0,0,0,427,373C429.08,374.19,458.12,385.91,458.12,385.91Z"/><circle class="cls-3" cx="429.02" cy="368.94" r="1.18" transform="translate(-105 556.01) rotate(-60)"/><path class="cls-5" d="M630.35,368.94l66.85-38.6A77.56,77.56,0,0,0,669,302.09Z"/><path class="cls-6" d="M658.44,320.3a55.89,55.89,0,0,0-28.08-7.52v56.15Z"/><path class="cls-7" d="M679,340.86a56.43,56.43,0,0,0-20.56-20.56l-28.08,48.64Z"/><path class="cls-8" d="M630.35,340.86s-3.83,26.39-3.83,28.45a3.84,3.84,0,0,0,7.66,0C634.19,367.25,630.35,340.86,630.35,340.86Z"/><path class="cls-9" d="M630.35,368.94l70.83,40.9a81.86,81.86,0,0,0,0-81.79Z"/><path class="cls-10" d="M679,397a56.21,56.21,0,0,0,0-56.16l-48.64,28.08Z"/><path class="cls-11" d="M705,412l-74.63-43.09V455.1A86.12,86.12,0,0,0,705,412Z"/><path class="cls-12" d="M630.35,368.94v56.15A56.13,56.13,0,0,0,679,397Z"/><path class="cls-8" d="M659.46,385.91s-24.51-19.5-26.6-20.72a4.51,4.51,0,0,0-4.54,7.78C630.41,374.19,659.46,385.91,659.46,385.91Z"/><circle class="cls-3" cx="630.35" cy="368.94" r="1.18" transform="translate(-4.33 730.37) rotate(-60)"/><g id="MTEXT"><text class="cls-13" transform="translate(150.82 307.65)">O<tspan x="18.72" y="0">S</tspan><tspan x="32.9" y="0">L</tspan><tspan x="45.73" y="0">O</tspan><tspan x="-28.47" y="26.59">K</tspan><tspan x="-13.36" y="26.59">OMMUNE</tspan></text></g><g id="MTEXT-2" data-name="MTEXT"><text class="cls-14" transform="translate(410.17 186.25)">O<tspan x="10.94" y="0">S</tspan><tspan x="19.22" y="0">L</tspan><tspan x="26.71" y="0">O</tspan><tspan x="-14.11" y="15.53">SENTRUM</tspan></text></g><g id="MTEXT-3" data-name="MTEXT"><text class="cls-14" transform="translate(611.5 186.25)">O<tspan x="10.94" y="0">S</tspan><tspan x="19.22" y="0">L</tspan><tspan x="26.71" y="0">O</tspan><tspan x="-15.2" y="15.53">NORD</tspan><tspan x="25.5" y="15.53">Ø</tspan><tspan x="36.44" y="15.53">S</tspan><tspan x="44.52" y="15.53">T</tspan></text></g><g id="MTEXT-4" data-name="MTEXT"><text class="cls-14" transform="translate(410.17 395.37)">O<tspan x="10.94" y="0">S</tspan><tspan x="19.22" y="0">L</tspan><tspan x="26.71" y="0">O</tspan><tspan x="1.58" y="15.53">VE</tspan><tspan x="19.65" y="15.53">S</tspan><tspan x="27.74" y="15.53">T</tspan></text></g><g id="MTEXT-5" data-name="MTEXT"><text class="cls-14" transform="translate(611.5 395.37)">O<tspan x="10.94" y="0">S</tspan><tspan x="19.22" y="0">L</tspan><tspan x="26.71" y="0">O</tspan><tspan x="4.54" y="15.53">SØR</tspan></text></g><text class="cls-15" transform="matrix(0.99, 0.15, -0.15, 0.99, 194.18, 161.94)">1</text><text class="cls-15" transform="translate(201.45 162.92) rotate(13.57)">2</text><text class="cls-15" transform="translate(212.04 165.3) rotate(20.97)">%</text><text class="cls-15" transform="translate(226.12 170.96) rotate(26.76)"> </text><text class="cls-15" transform="translate(230.8 173.32) rotate(29.75)"> </text><text class="cls-15" transform="matrix(0.84, 0.54, -0.54, 0.84, 235.36, 175.91)"> </text><text class="cls-16" transform="matrix(0.8, 0.6, -0.6, 0.8, 239.76, 178.68)">1</text><text class="cls-16" transform="translate(246.4 183.42) rotate(42.48)">6</text><text class="cls-16" transform="translate(255.98 191.95) rotate(50.81)">%</text><text class="cls-15" transform="matrix(0.54, 0.84, -0.84, 0.54, 266.42, 205.24)"> </text><text class="cls-15" transform="matrix(0.5, 0.87, -0.87, 0.5, 269.28, 209.64)"> </text><text class="cls-15" transform="translate(271.89 214.16) rotate(62.96)"> </text><text class="cls-15" transform="translate(274.28 218.83) rotate(65.94)"> </text><text class="cls-15" transform="translate(276.43 223.63) rotate(68.94)"> </text><text class="cls-15" transform="matrix(0.31, 0.95, -0.95, 0.31, 278.32, 228.52)"> </text><text class="cls-15" transform="matrix(0.26, 0.97, -0.97, 0.26, 279.94, 233.49)"> </text><text class="cls-15" transform="matrix(0.21, 0.98, -0.98, 0.21, 281.31, 238.57)"> </text><text class="cls-17" transform="matrix(0.12, 0.99, -0.99, 0.12, 282.59, 243.56)">3</text><text class="cls-17" transform="matrix(0.01, 1, -1, 0.01, 284.06, 256.82)">1</text><text class="cls-17" transform="translate(284.49 265.73) rotate(97.15)">%</text><text class="cls-15" transform="translate(281.81 284.09) rotate(103.86)"> </text><text class="cls-15" transform="translate(280.56 289.18) rotate(106.86)"> </text><text class="cls-15" transform="translate(279.04 294.2) rotate(109.86)"> </text><text class="cls-15" transform="translate(277.25 299.15) rotate(112.86)"> </text><text class="cls-15" transform="translate(275.23 303.97) rotate(115.84)"> </text><text class="cls-15" transform="translate(272.94 308.69) rotate(118.83)"> </text><text class="cls-15" transform="translate(270.42 313.29) rotate(121.82)"> </text><text class="cls-15" transform="translate(267.66 317.74) rotate(124.78)"> </text><text class="cls-15" transform="translate(264.67 322.05) rotate(127.75)"> </text><text class="cls-15" transform="translate(261.45 326.22) rotate(130.73)"> </text><text class="cls-15" transform="matrix(-0.69, 0.72, -0.72, -0.69, 258.04, 330.19)"> </text><text class="cls-15" transform="matrix(-0.73, 0.69, -0.69, -0.73, 254.4, 334)"> </text><text class="cls-15" transform="translate(250.61 337.59) rotate(139.59)"> </text><text class="cls-18" transform="translate(246.72 341.02) rotate(143.85)">1</text><text class="cls-18" transform="translate(238.91 346.95) rotate(150.79)">5</text><text class="cls-18" transform="translate(226.25 354.34) rotate(160.68)">%</text><text class="cls-15" transform="translate(206.98 360.62) rotate(167.91)"> </text><text class="cls-15" transform="matrix(-0.99, 0.16, -0.16, -0.99, 201.87, 361.71)"> </text><text class="cls-15" transform="translate(196.67 362.55) rotate(173.89)"> </text><text class="cls-15" transform="matrix(-1, 0.06, -0.06, -1, 191.47, 363.11)"> </text><text class="cls-15" transform="translate(186.23 363.41) rotate(179.79)"> </text><text class="cls-15" transform="matrix(-1, -0.05, 0.05, -1, 180.97, 363.43)"> </text><text class="cls-15" transform="translate(175.74 363.18) rotate(-174.35)"> </text><text class="cls-15" transform="translate(170.52 362.67) rotate(-171.39)"> </text><text class="cls-15" transform="matrix(-0.98, -0.2, 0.2, -0.98, 165.32, 361.89)"> </text><text class="cls-15" transform="translate(160.19 360.84) rotate(-165.42)"> </text><text class="cls-15" transform="translate(155.13 359.53) rotate(-162.43)"> </text><text class="cls-15" transform="translate(150.12 357.94) rotate(-159.42)"> </text><text class="cls-15" transform="matrix(-0.92, -0.4, 0.4, -0.92, 145.2, 356.1)"> </text><text class="cls-15" transform="translate(140.39 354.01) rotate(-153.43)"> </text><text class="cls-15" transform="translate(135.7 351.67) rotate(-150.45)"> </text><text class="cls-15" transform="translate(131.14 349.09) rotate(-147.47)"> </text><text class="cls-15" transform="translate(126.72 346.28) rotate(-144.51)"> </text><text class="cls-15" transform="matrix(-0.78, -0.62, 0.62, -0.78, 122.44, 343.22)"> </text><text class="cls-15" transform="matrix(-0.75, -0.66, 0.66, -0.75, 118.32, 339.96)"> </text><text class="cls-15" transform="translate(114.4 336.5) rotate(-135.62)"> </text><text class="cls-15" transform="matrix(-0.68, -0.74, 0.74, -0.68, 110.64, 332.82)"> </text><text class="cls-15" transform="translate(107.09 328.98) rotate(-129.7)"> </text><text class="cls-15" transform="translate(103.72 324.93) rotate(-126.73)"> </text><text class="cls-15" transform="translate(100.59 320.74) rotate(-123.77)"> </text><text class="cls-15" transform="translate(97.67 316.38) rotate(-120.8)"> </text><text class="cls-15" transform="translate(94.98 311.88) rotate(-117.83)"> </text><text class="cls-15" transform="translate(92.52 307.24) rotate(-114.84)"> </text><text class="cls-15" transform="matrix(-0.37, -0.93, 0.93, -0.37, 90.32, 302.47)"> </text><text class="cls-15" transform="matrix(-0.32, -0.95, 0.95, -0.32, 88.36, 297.61)"> </text><text class="cls-15" transform="translate(86.67 292.67) rotate(-105.87)"> </text><text class="cls-19" transform="translate(85.14 287.72) rotate(-101.33)">1</text><text class="cls-19" transform="translate(82.82 277.35) rotate(-93.54)">9</text><text class="cls-19" transform="translate(81.5 260.68) rotate(-82.78)">%</text><text class="cls-20" transform="translate(435.5 101.14) rotate(8.37)">1</text><text class="cls-20" transform="matrix(0.97, 0.23, -0.23, 0.97, 439.75, 101.71)">2</text><text class="cls-20" transform="translate(445.92 103.1) rotate(20.96)">%</text><text class="cls-20" transform="translate(454.13 106.4) rotate(26.74)"> </text><text class="cls-20" transform="translate(456.87 107.78) rotate(29.72)"> </text><text class="cls-20" transform="translate(459.54 109.3) rotate(32.71)"> </text><text class="cls-20" transform="translate(462.12 110.95) rotate(35.69)"> </text><text class="cls-20" transform="matrix(0.77, 0.63, -0.63, 0.77, 464.6, 112.71)">1</text><text class="cls-20" transform="translate(467.96 115.36) rotate(44.59)">6</text><text class="cls-21" transform="translate(472.83 119.99) rotate(52.54)">%</text><text class="cls-20" transform="translate(478.69 127.93) rotate(58.77)"> </text><text class="cls-20" transform="matrix(0.47, 0.88, -0.88, 0.47, 480.27, 130.53)"> </text><text class="cls-20" transform="translate(481.72 133.23) rotate(64.7)"> </text><text class="cls-20" transform="translate(483.03 136) rotate(67.69)"> </text><text class="cls-20" transform="translate(484.2 138.82) rotate(70.68)"> </text><text class="cls-20" transform="matrix(0.28, 0.96, -0.96, 0.28, 485.22, 141.72)"> </text><text class="cls-20" transform="translate(486.08 144.67) rotate(76.69)"> </text><text class="cls-20" transform="translate(486.78 147.63) rotate(79.66)"> </text><text class="cls-22" transform="translate(487.44 150.56) rotate(84.92)">3</text><text class="cls-22" transform="matrix(-0.01, 1, -1, -0.01, 488.04, 158.29)">1</text><text class="cls-22" transform="translate(488.17 163.52) rotate(98.85)">%</text><text class="cls-20" transform="matrix(-0.27, 0.96, -0.96, -0.27, 486.28, 174.21)"> </text><text class="cls-20" transform="matrix(-0.32, 0.95, -0.95, -0.32, 485.46, 177.15)"> </text><text class="cls-20" transform="translate(484.48 180.06) rotate(111.58)"> </text><text class="cls-20" transform="translate(483.36 182.91) rotate(114.57)"> </text><text class="cls-20" transform="translate(482.1 185.68) rotate(117.55)"> </text><text class="cls-20" transform="translate(480.68 188.4) rotate(120.53)"> </text><text class="cls-20" transform="translate(479.12 191.05) rotate(123.51)"> </text><text class="cls-20" transform="translate(477.45 193.58) rotate(126.46)"> </text><text class="cls-20" transform="translate(475.63 196.05) rotate(129.42)"> </text><text class="cls-20" transform="translate(473.68 198.42) rotate(132.4)"> </text><text class="cls-20" transform="translate(471.61 200.7) rotate(135.36)"> </text><text class="cls-20" transform="translate(469.44 202.84) rotate(138.31)"> </text><text class="cls-20" transform="matrix(-0.78, 0.63, -0.63, -0.78, 467.16, 204.88)"> </text><text class="cls-23" transform="matrix(-0.82, 0.57, -0.57, -0.82, 464.83, 206.82)">1</text><text class="cls-23" transform="translate(460.16 210.14) rotate(152.4)">7</text><text class="cls-23" transform="translate(452.8 214.17) rotate(162.2)">%</text><text class="cls-20" transform="translate(441.48 217.53) rotate(169.41)"> </text><text class="cls-20" transform="translate(438.44 218.1) rotate(172.42)"> </text><text class="cls-20" transform="translate(435.43 218.51) rotate(175.38)"> </text><text class="cls-20" transform="translate(432.36 218.76) rotate(178.34)"> </text><text class="cls-20" transform="matrix(-1, -0.01, 0.01, -1, 429.31, 218.83)"> </text><text class="cls-20" transform="translate(426.24 218.78) rotate(-175.81)"> </text><text class="cls-20" transform="translate(423.19 218.56) rotate(-172.87)"> </text><text class="cls-20" transform="translate(420.15 218.18) rotate(-169.89)"> </text><text class="cls-20" transform="matrix(-0.97, -0.23, 0.23, -0.97, 417.15, 217.65)"> </text><text class="cls-20" transform="matrix(-0.96, -0.28, 0.28, -0.96, 414.16, 216.96)"> </text><text class="cls-20" transform="translate(411.21 216.11) rotate(-160.92)"> </text><text class="cls-20" transform="translate(408.32 215.12) rotate(-157.93)"> </text><text class="cls-20" transform="translate(405.49 213.97) rotate(-154.94)"> </text><text class="cls-20" transform="translate(402.71 212.67) rotate(-151.95)"> </text><text class="cls-20" transform="translate(400.01 211.24) rotate(-148.97)"> </text><text class="cls-20" transform="matrix(-0.83, -0.56, 0.56, -0.83, 397.38, 209.66)"> </text><text class="cls-20" transform="matrix(-0.8, -0.6, 0.6, -0.8, 394.83, 207.94)"> </text><text class="cls-20" transform="translate(392.39 206.11) rotate(-140.06)"> </text><text class="cls-20" transform="matrix(-0.73, -0.68, 0.68, -0.73, 390.05, 204.15)"> </text><text class="cls-20" transform="matrix(-0.7, -0.72, 0.72, -0.7, 387.81, 202.07)"> </text><text class="cls-20" transform="matrix(-0.66, -0.75, 0.75, -0.66, 385.66, 199.87)"> </text><text class="cls-20" transform="matrix(-0.62, -0.79, 0.79, -0.62, 383.65, 197.57)"> </text><text class="cls-20" transform="translate(381.74 195.15) rotate(-125.27)"> </text><text class="cls-20" transform="matrix(-0.53, -0.85, 0.85, -0.53, 379.97, 192.65)"> </text><text class="cls-20" transform="translate(378.34 190.08) rotate(-119.36)"> </text><text class="cls-20" transform="translate(376.84 187.42) rotate(-116.39)"> </text><text class="cls-20" transform="translate(375.47 184.66) rotate(-113.38)"> </text><text class="cls-20" transform="translate(374.26 181.86) rotate(-110.4)"> </text><text class="cls-20" transform="translate(373.19 178.99) rotate(-107.4)"> </text><text class="cls-20" transform="matrix(-0.25, -0.97, 0.97, -0.25, 372.27, 176.09)"> </text><text class="cls-24" transform="translate(371.45 173.16) rotate(-99.87)">1</text><text class="cls-24" transform="translate(370.25 167.08) rotate(-92.11)">6</text><text class="cls-24" transform="translate(369.72 157.34) rotate(-81.35)">%</text><text class="cls-20" transform="translate(636.83 101.14) rotate(8.37)">1</text><text class="cls-20" transform="translate(641.09 101.76) rotate(12.56)">1</text><text class="cls-20" transform="translate(645.28 102.55) rotate(18.97)">%</text><text class="cls-20" transform="translate(653.61 105.56) rotate(24.75)"> </text><text class="cls-20" transform="matrix(0.89, 0.47, -0.47, 0.89, 656.38, 106.84)"> </text><text class="cls-20" transform="matrix(0.86, 0.51, -0.51, 0.86, 659.1, 108.27)"> </text><text class="cls-20" transform="translate(661.73 109.82) rotate(33.68)"> </text><text class="cls-21" transform="matrix(0.79, 0.61, -0.61, 0.79, 664.28, 111.48)">1</text><text class="cls-21" transform="translate(668.09 114.32) rotate(43.25)">5</text><text class="cls-21" transform="matrix(0.62, 0.78, -0.78, 0.62, 673.36, 119.12)">%</text><text class="cls-20" transform="translate(679.36 126.93) rotate(57.6)"> </text><text class="cls-20" transform="translate(681.01 129.52) rotate(60.58)"> </text><text class="cls-20" transform="translate(682.51 132.17) rotate(63.55)"> </text><text class="cls-20" transform="translate(683.88 134.91) rotate(66.53)"> </text><text class="cls-20" transform="matrix(0.35, 0.94, -0.94, 0.35, 685.09, 137.71)"> </text><text class="cls-20" transform="translate(686.17 140.58) rotate(72.51)"> </text><text class="cls-20" transform="translate(687.1 143.52) rotate(75.52)"> </text><text class="cls-20" transform="translate(687.86 146.48) rotate(78.52)"> </text><text class="cls-22" transform="matrix(0.11, 0.99, -0.99, 0.11, 688.58, 149.39)">3</text><text class="cls-22" transform="matrix(-0.01, 1, -1, -0.01, 689.39, 157.09)">3</text><text class="cls-22" transform="translate(689.41 164.82) rotate(100.11)">%</text><text class="cls-20" transform="translate(687.29 175.44) rotate(106.83)"> </text><text class="cls-20" transform="translate(686.4 178.4) rotate(109.86)"> </text><text class="cls-20" transform="translate(685.36 181.27) rotate(112.84)"> </text><text class="cls-20" transform="translate(684.17 184.1) rotate(115.84)"> </text><text class="cls-20" transform="translate(682.85 186.84) rotate(118.81)"> </text><text class="cls-20" transform="translate(681.37 189.54) rotate(121.8)"> </text><text class="cls-20" transform="translate(679.76 192.13) rotate(124.76)"> </text><text class="cls-20" transform="translate(678.02 194.65) rotate(127.73)"> </text><text class="cls-20" transform="matrix(-0.65, 0.76, -0.76, -0.65, 676.15, 197.07)"> </text><text class="cls-20" transform="matrix(-0.69, 0.72, -0.72, -0.69, 674.15, 199.4)"> </text><text class="cls-20" transform="matrix(-0.73, 0.69, -0.69, -0.73, 672.04, 201.61)"> </text><text class="cls-20" transform="matrix(-0.76, 0.65, -0.65, -0.76, 669.82, 203.71)"> </text><text class="cls-20" transform="matrix(-0.79, 0.61, -0.61, -0.79, 667.5, 205.7)"> </text><text class="cls-23" transform="translate(665.11 207.6) rotate(146.79)">1</text><text class="cls-23" transform="matrix(-0.9, 0.44, -0.44, -0.9, 660.4, 210.81)">5</text><text class="cls-23" transform="translate(652.8 214.74) rotate(163.62)">%</text><text class="cls-20" transform="translate(641.37 217.83) rotate(170.85)"> </text><text class="cls-20" transform="translate(638.35 218.31) rotate(173.82)"> </text><text class="cls-20" transform="matrix(-1, 0.06, -0.06, -1, 635.31, 218.64)"> </text><text class="cls-20" transform="translate(632.26 218.82) rotate(179.72)"> </text><text class="cls-20" transform="translate(629.19 218.84) rotate(-177.35)"> </text><text class="cls-20" transform="matrix(-1, -0.1, 0.1, -1, 626.14, 218.7)"> </text><text class="cls-20" transform="translate(623.09 218.4) rotate(-171.47)"> </text><text class="cls-20" transform="matrix(-0.98, -0.2, 0.2, -0.98, 620.06, 217.95)"> </text><text class="cls-20" transform="translate(617.05 217.34) rotate(-165.49)"> </text><text class="cls-20" transform="translate(614.09 216.58) rotate(-162.5)"> </text><text class="cls-20" transform="matrix(-0.94, -0.35, 0.35, -0.94, 611.19, 215.66)"> </text><text class="cls-20" transform="matrix(-0.92, -0.4, 0.4, -0.92, 608.32, 214.59)"> </text><text class="cls-20" transform="translate(605.49 213.37) rotate(-153.52)"> </text><text class="cls-20" transform="translate(602.75 212.01) rotate(-150.54)"> </text><text class="cls-20" transform="matrix(-0.84, -0.54, 0.54, -0.84, 600.09, 210.51)"> </text><text class="cls-20" transform="translate(597.5 208.87) rotate(-144.59)"> </text><text class="cls-20" transform="translate(595 207.09) rotate(-141.63)"> </text><text class="cls-20" transform="translate(592.61 205.2) rotate(-138.67)"> </text><text class="cls-20" transform="matrix(-0.72, -0.7, 0.7, -0.72, 590.29, 203.17)"> </text><text class="cls-20" transform="matrix(-0.68, -0.73, 0.73, -0.68, 588.11, 201.04)"> </text><text class="cls-20" transform="translate(586.03 198.8) rotate(-129.81)"> </text><text class="cls-20" transform="matrix(-0.6, -0.8, 0.8, -0.6, 584.07, 196.45)"> </text><text class="cls-20" transform="translate(582.24 194.01) rotate(-123.9)"> </text><text class="cls-20" transform="translate(580.53 191.46) rotate(-120.93)"> </text><text class="cls-20" transform="matrix(-0.47, -0.88, 0.88, -0.47, 578.95, 188.83)"> </text><text class="cls-20" transform="translate(577.5 186.11) rotate(-114.95)"> </text><text class="cls-20" transform="matrix(-0.37, -0.93, 0.93, -0.37, 576.21, 183.35)"> </text><text class="cls-20" transform="matrix(-0.33, -0.95, 0.95, -0.33, 575.07, 180.52)"> </text><text class="cls-20" transform="translate(574.07 177.61) rotate(-105.98)"> </text><text class="cls-20" transform="translate(573.22 174.68) rotate(-103)"> </text><text class="cls-24" transform="translate(572.48 171.77) rotate(-98.48)">1</text><text class="cls-24" transform="matrix(-0.02, -1, 1, -0.02, 571.46, 165.65)">7</text><text class="cls-24" transform="translate(571.09 156.52) rotate(-80.56)">%</text><text class="cls-20" transform="translate(435.5 310.25) rotate(8.37)">1</text><text class="cls-20" transform="translate(439.76 310.87) rotate(12.56)">1</text><text class="cls-20" transform="translate(443.95 311.67) rotate(18.97)">%</text><text class="cls-20" transform="translate(452.27 314.67) rotate(24.75)"> </text><text class="cls-20" transform="matrix(0.89, 0.47, -0.47, 0.89, 455.04, 315.95)"> </text><text class="cls-20" transform="matrix(0.86, 0.51, -0.51, 0.86, 457.77, 317.38)"> </text><text class="cls-20" transform="translate(460.39 318.93) rotate(33.68)"> </text><text class="cls-21" transform="matrix(0.79, 0.61, -0.61, 0.79, 462.94, 320.59)">1</text><text class="cls-21" transform="translate(466.75 323.43) rotate(43.25)">8</text><text class="cls-21" transform="matrix(0.62, 0.78, -0.78, 0.62, 472.02, 328.23)">%</text><text class="cls-20" transform="translate(478.03 336.04) rotate(57.6)"> </text><text class="cls-20" transform="translate(479.68 338.63) rotate(60.58)"> </text><text class="cls-20" transform="translate(481.18 341.29) rotate(63.55)"> </text><text class="cls-20" transform="translate(482.54 344.03) rotate(66.53)"> </text><text class="cls-20" transform="matrix(0.35, 0.94, -0.94, 0.35, 483.76, 346.82)"> </text><text class="cls-20" transform="translate(484.84 349.7) rotate(72.51)"> </text><text class="cls-20" transform="translate(485.76 352.64) rotate(75.52)"> </text><text class="cls-20" transform="translate(486.53 355.59) rotate(78.52)"> </text><text class="cls-22" transform="matrix(0.11, 0.99, -0.99, 0.11, 487.24, 358.5)">3</text><text class="cls-22" transform="translate(488.03 366.24) rotate(90.04)">1</text><text class="cls-22" transform="matrix(-0.13, 0.99, -0.99, -0.13, 488.23, 371.46)">%</text><text class="cls-20" transform="matrix(-0.25, 0.97, -0.97, -0.25, 486.55, 382.16)"> </text><text class="cls-20" transform="translate(485.8 385.12) rotate(107.41)"> </text><text class="cls-20" transform="translate(484.88 388.05) rotate(110.41)"> </text><text class="cls-20" transform="matrix(-0.4, 0.92, -0.92, -0.4, 483.82, 390.92)"> </text><text class="cls-20" transform="translate(482.6 393.72) rotate(116.39)"> </text><text class="cls-20" transform="translate(481.25 396.47) rotate(119.38)"> </text><text class="cls-20" transform="matrix(-0.54, 0.84, -0.84, -0.54, 479.74, 399.15)"> </text><text class="cls-20" transform="translate(478.11 401.72) rotate(125.32)"> </text><text class="cls-20" transform="matrix(-0.62, 0.78, -0.78, -0.62, 476.34, 404.22)"> </text><text class="cls-20" transform="matrix(-0.66, 0.75, -0.75, -0.66, 474.44, 406.64)"> </text><text class="cls-20" transform="matrix(-0.7, 0.72, -0.72, -0.7, 472.42, 408.94)"> </text><text class="cls-20" transform="translate(470.3 411.13) rotate(137.16)"> </text><text class="cls-23" transform="translate(468.12 413.23) rotate(141.41)">1</text><text class="cls-23" transform="matrix(-0.85, 0.53, -0.53, -0.85, 463.71, 416.87)">3</text><text class="cls-23" transform="translate(456.62 421.45) rotate(158.08)">%</text><text class="cls-20" transform="matrix(-0.97, 0.25, -0.25, -0.97, 445.55, 425.62)"> </text><text class="cls-20" transform="translate(442.59 426.39) rotate(168.29)"> </text><text class="cls-20" transform="matrix(-0.99, 0.15, -0.15, -0.99, 439.6, 427.02)"> </text><text class="cls-20" transform="translate(436.56 427.49) rotate(174.27)"> </text><text class="cls-20" transform="translate(433.54 427.79) rotate(177.21)"> </text><text class="cls-20" transform="matrix(-1, 0, 0, -1, 430.47, 427.94)"> </text><text class="cls-20" transform="matrix(-1, -0.05, 0.05, -1, 427.4, 427.94)"> </text><text class="cls-20" transform="translate(424.34 427.77) rotate(-173.98)"> </text><text class="cls-20" transform="matrix(-0.99, -0.16, 0.16, -0.99, 421.3, 427.46)"> </text><text class="cls-20" transform="matrix(-0.98, -0.21, 0.21, -0.98, 418.28, 426.98)"> </text><text class="cls-20" transform="matrix(-0.97, -0.26, 0.26, -0.97, 415.27, 426.35)"> </text><text class="cls-20" transform="translate(412.32 425.56) rotate(-162.05)"> </text><text class="cls-20" transform="matrix(-0.93, -0.36, 0.36, -0.93, 409.4, 424.62)"> </text><text class="cls-20" transform="translate(406.56 423.54) rotate(-156.08)"> </text><text class="cls-20" transform="translate(403.75 422.29) rotate(-153.08)"> </text><text class="cls-20" transform="translate(401.02 420.91) rotate(-150.1)"> </text><text class="cls-20" transform="matrix(-0.84, -0.54, 0.54, -0.84, 398.36, 419.38)"> </text><text class="cls-20" transform="matrix(-0.81, -0.59, 0.59, -0.81, 395.78, 417.71)"> </text><text class="cls-20" transform="translate(393.3 415.92) rotate(-141.18)"> </text><text class="cls-20" transform="matrix(-0.75, -0.67, 0.67, -0.75, 390.92, 414.01)"> </text><text class="cls-20" transform="translate(388.64 411.98) rotate(-135.28)"> </text><text class="cls-20" transform="matrix(-0.67, -0.74, 0.74, -0.67, 386.47, 409.83)"> </text><text class="cls-20" transform="translate(384.39 407.56) rotate(-129.36)"> </text><text class="cls-20" transform="translate(382.45 405.2) rotate(-126.41)"> </text><text class="cls-20" transform="matrix(-0.55, -0.83, 0.83, -0.55, 380.64, 402.74)"> </text><text class="cls-20" transform="matrix(-0.51, -0.86, 0.86, -0.51, 378.94, 400.18)"> </text><text class="cls-20" transform="matrix(-0.46, -0.89, 0.89, -0.46, 377.4, 397.55)"> </text><text class="cls-20" transform="matrix(-0.41, -0.91, 0.91, -0.41, 375.97, 394.82)"> </text><text class="cls-20" transform="translate(374.7 392.05) rotate(-111.54)"> </text><text class="cls-24" transform="translate(373.44 389.33) rotate(-105.54)">2</text><text class="cls-24" transform="matrix(-0.11, -0.99, 0.99, -0.11, 370.96, 380.48)">2</text><text class="cls-24" transform="matrix(0.07, -1, 1, 0.07, 369.72, 371.38)">%</text><text class="cls-20" transform="translate(636.83 310.25) rotate(8.37)">1</text><text class="cls-20" transform="translate(641.08 310.79) rotate(14.11)">0</text><text class="cls-20" transform="translate(648.29 312.53) rotate(22.02)">%</text><text class="cls-20" transform="matrix(0.88, 0.47, -0.47, 0.88, 656.46, 315.99)"> </text><text class="cls-20" transform="translate(659.16 317.41) rotate(30.79)"> </text><text class="cls-20" transform="matrix(0.83, 0.56, -0.56, 0.83, 661.8, 318.98)"> </text><text class="cls-21" transform="translate(664.35 320.65) rotate(37.58)">1</text><text class="cls-21" transform="translate(668.16 323.49) rotate(43.34)">5</text><text class="cls-21" transform="translate(673.42 328.3) rotate(51.49)">%</text><text class="cls-20" transform="translate(679.41 336.11) rotate(57.69)"> </text><text class="cls-20" transform="translate(681.05 338.7) rotate(60.67)"> </text><text class="cls-20" transform="translate(682.55 341.36) rotate(63.63)"> </text><text class="cls-20" transform="matrix(0.4, 0.92, -0.92, 0.4, 683.91, 344.11)"> </text><text class="cls-20" transform="matrix(0.35, 0.94, -0.94, 0.35, 685.13, 346.91)"> </text><text class="cls-20" transform="translate(686.2 349.78) rotate(72.6)"> </text><text class="cls-20" transform="translate(687.12 352.7) rotate(75.59)"> </text><text class="cls-20" transform="translate(687.88 355.66) rotate(78.58)"> </text><text class="cls-22" transform="translate(688.59 358.58) rotate(83.86)">2</text><text class="cls-22" transform="matrix(-0.01, 1, -1, -0.01, 689.38, 366.31)">8</text><text class="cls-22" transform="translate(689.38 374.16) rotate(100.34)">%</text><text class="cls-20" transform="translate(687.23 384.77) rotate(107.06)"> </text><text class="cls-20" transform="translate(686.33 387.7) rotate(110.06)"> </text><text class="cls-20" transform="matrix(-0.39, 0.92, -0.92, -0.39, 685.28, 390.59)"> </text><text class="cls-20" transform="matrix(-0.44, 0.9, -0.9, -0.44, 684.09, 393.4)"> </text><text class="cls-20" transform="translate(682.74 396.15) rotate(119.03)"> </text><text class="cls-20" transform="matrix(-0.53, 0.85, -0.85, -0.53, 681.27, 398.82)"> </text><text class="cls-20" transform="matrix(-0.57, 0.82, -0.82, -0.57, 679.64, 401.43)"> </text><text class="cls-20" transform="translate(677.89 403.94) rotate(127.94)"> </text><text class="cls-20" transform="translate(676.01 406.35) rotate(130.9)"> </text><text class="cls-20" transform="matrix(-0.69, 0.72, -0.72, -0.69, 674, 408.68)"> </text><text class="cls-20" transform="translate(671.88 410.88) rotate(136.82)"> </text><text class="cls-20" transform="matrix(-0.76, 0.65, -0.65, -0.76, 669.66, 412.97)"> </text><text class="cls-20" transform="matrix(-0.8, 0.61, -0.61, -0.8, 667.33, 414.95)"> </text><text class="cls-23" transform="matrix(-0.84, 0.54, -0.54, -0.84, 664.95, 416.83)">1</text><text class="cls-23" transform="translate(660.23 420.04) rotate(154.13)">6</text><text class="cls-23" transform="translate(652.19 424.1) rotate(164.26)">%</text><text class="cls-20" transform="translate(640.73 427.05) rotate(171.48)"> </text><text class="cls-20" transform="translate(637.71 427.51) rotate(174.45)"> </text><text class="cls-20" transform="translate(634.66 427.81) rotate(177.41)"> </text><text class="cls-20" transform="translate(631.59 427.95) rotate(-179.64)"> </text><text class="cls-20" transform="matrix(-1, -0.06, 0.06, -1, 628.54, 427.93)"> </text><text class="cls-20" transform="translate(625.48 427.76) rotate(-173.8)"> </text><text class="cls-20" transform="matrix(-0.99, -0.16, 0.16, -0.99, 622.44, 427.43)"> </text><text class="cls-20" transform="translate(619.43 426.95) rotate(-167.86)"> </text><text class="cls-20" transform="translate(616.42 426.3) rotate(-164.86)"> </text><text class="cls-20" transform="translate(613.47 425.51) rotate(-161.87)"> </text><text class="cls-20" transform="translate(610.55 424.55) rotate(-158.86)"> </text><text class="cls-20" transform="translate(607.69 423.45) rotate(-155.87)"> </text><text class="cls-20" transform="translate(604.91 422.21) rotate(-152.89)"> </text><text class="cls-20" transform="matrix(-0.87, -0.5, 0.5, -0.87, 602.18, 420.81)"> </text><text class="cls-20" transform="translate(599.54 419.29) rotate(-146.94)"> </text><text class="cls-20" transform="matrix(-0.81, -0.59, 0.59, -0.81, 596.97, 417.61)"> </text><text class="cls-20" transform="translate(594.49 415.82) rotate(-141.01)"> </text><text class="cls-20" transform="matrix(-0.74, -0.67, 0.67, -0.74, 592.12, 413.89)"> </text><text class="cls-20" transform="translate(589.83 411.84) rotate(-135.08)"> </text><text class="cls-20" transform="translate(587.65 409.67) rotate(-132.12)"> </text><text class="cls-20" transform="translate(585.6 407.41) rotate(-129.17)"> </text><text class="cls-20" transform="translate(583.67 405.04) rotate(-126.22)"> </text><text class="cls-20" transform="matrix(-0.55, -0.84, 0.84, -0.55, 581.85, 402.57)"> </text><text class="cls-20" transform="matrix(-0.5, -0.86, 0.86, -0.5, 580.17, 400.01)"> </text><text class="cls-20" transform="translate(578.62 397.36) rotate(-117.3)"> </text><text class="cls-20" transform="translate(577.22 394.66) rotate(-114.34)"> </text><text class="cls-20" transform="translate(575.96 391.86) rotate(-111.35)"> </text><text class="cls-20" transform="matrix(-0.31, -0.95, 0.95, -0.31, 574.84, 389.01)"> </text><text class="cls-20" transform="translate(573.88 386.12) rotate(-105.36)"> </text><text class="cls-20" transform="matrix(-0.21, -0.98, 0.98, -0.21, 573.06, 383.15)"> </text><text class="cls-24" transform="translate(572.25 380.28) rotate(-96.38)">2</text><text class="cls-24" transform="translate(571.21 371.16) rotate(-87.51)">2</text><text class="cls-24" transform="matrix(0.23, -0.97, 0.97, 0.23, 571.41, 361.96)">%</text></svg>