<svg id="Layer_1" data-name="Layer 1" xmlns="http://www.w3.org/2000/svg" xmlns:xlink="http://www.w3.org/1999/xlink" viewBox="0 0 228.78 68"><defs><style>.cls-1,.cls-2{fill:none;}.cls-2,.cls-4,.cls-5{stroke:#cca69b;}.cls-2{stroke-width:0.72px;}.cls-3{fill:#fde0d1;}.cls-4,.cls-5{stroke-miterlimit:10;}.cls-4{fill:url(#_10_lpi_10_);}.cls-5{fill:url(#_10_lpi_10_5);}</style><pattern id="_10_lpi_10_" data-name="10 lpi 10%" width="72" height="72" patternTransform="translate(25.41 -7.91) rotate(-30) scale(0.4)" patternUnits="userSpaceOnUse" viewBox="0 0 72 72"><rect class="cls-1" width="72" height="72"/><line class="cls-2" x1="71.75" y1="68.4" x2="144.25" y2="68.4"/><line class="cls-2" x1="71.75" y1="54" x2="144.25" y2="54"/><line class="cls-2" x1="71.75" y1="39.6" x2="144.25" y2="39.6"/><line class="cls-2" x1="71.75" y1="25.2" x2="144.25" y2="25.2"/><line class="cls-2" x1="71.75" y1="10.8" x2="144.25" y2="10.8"/><line class="cls-2" x1="71.75" y1="61.2" x2="144.25" y2="61.2"/><line class="cls-2" x1="71.75" y1="46.8" x2="144.25" y2="46.8"/><line class="cls-2" x1="71.75" y1="32.4" x2="144.25" y2="32.4"/><line class="cls-2" x1="71.75" y1="18" x2="144.25" y2="18"/><line class="cls-2" x1="71.75" y1="3.6" x2="144.25" y2="3.6"/><line class="cls-2" x1="-0.25" y1="68.4" x2="72.25" y2="68.4"/><line class="cls-2" x1="-0.25" y1="54" x2="72.25" y2="54"/><line class="cls-2" x1="-0.25" y1="39.6" x2="72.25" y2="39.6"/><line class="cls-2" x1="-0.25" y1="25.2" x2="72.25" y2="25.2"/><line class="cls-2" x1="-0.25" y1="10.8" x2="72.25" y2="10.8"/><line class="cls-2" x1="-0.25" y1="61.2" x2="72.25" y2="61.2"/><line class="cls-2" x1="-0.25" y1="46.8" x2="72.25" y2="46.8"/><line class="cls-2" x1="-0.25" y1="32.4" x2="72.25" y2="32.4"/><line class="cls-2" x1="-0.25" y1="18" x2="72.25" y2="18"/><line class="cls-2" x1="-0.25" y1="3.6" x2="72.25" y2="3.6"/><line class="cls-2" x1="-72.25" y1="68.4" x2="0.25" y2="68.4"/><line class="cls-2" x1="-72.25" y1="54" x2="0.25" y2="54"/><line class="cls-2" x1="-72.25" y1="39.6" x2="0.25" y2="39.6"/><line class="cls-2" x1="-72.25" y1="25.2" x2="0.25" y2="25.2"/><line class="cls-2" x1="-72.25" y1="10.8" x2="0.25" y2="10.8"/><line class="cls-2" x1="-72.25" y1="61.2" x2="0.25" y2="61.2"/><line class="cls-2" x1="-72.25" y1="46.8" x2="0.25" y2="46.8"/><line class="cls-2" x1="-72.25" y1="32.4" x2="0.25" y2="32.4"/><line class="cls-2" x1="-72.25" y1="18" x2="0.25" y2="18"/><line class="cls-2" x1="-72.25" y1="3.6" x2="0.25" y2="3.6"/></pattern><pattern id="_10_lpi_10_5" data-name="10 lpi 10%" width="72" height="72" patternTransform="translate(10.93 -11.3) rotate(-30) scale(0.4)" patternUnits="userSpaceOnUse" viewBox="0 0 72 72"><rect class="cls-1" width="72" height="72"/><line class="cls-2" x1="71.75" y1="68.4" x2="144.25" y2="68.4"/><line class="cls-2" x1="71.75" y1="54" x2="144.25" y2="54"/><line class="cls-2" x1="71.75" y1="39.6" x2="144.25" y2="39.6"/><line class="cls-2" x1="71.75" y1="25.2" x2="144.25" y2="25.2"/><line class="cls-2" x1="71.75" y1="10.8" x2="144.25" y2="10.8"/><line class="cls-2" x1="71.75" y1="61.2" x2="144.25" y2="61.2"/><line class="cls-2" x1="71.75" y1="46.8" x2="144.25" y2="46.8"/><line class="cls-2" x1="71.75" y1="32.4" x2="144.25" y2="32.4"/><line class="cls-2" x1="71.75" y1="18" x2="144.25" y2="18"/><line class="cls-2" x1="71.75" y1="3.6" x2="144.25" y2="3.6"/><line class="cls-2" x1="-0.25" y1="68.4" x2="72.25" y2="68.4"/><line class="cls-2" x1="-0.25" y1="54" x2="72.25" y2="54"/><line class="cls-2" x1="-0.25" y1="39.6" x2="72.25" y2="39.6"/><line class="cls-2" x1="-0.25" y1="25.2" x2="72.25" y2="25.2"/><line class="cls-2" x1="-0.25" y1="10.8" x2="72.25" y2="10.8"/><line class="cls-2" x1="-0.25" y1="61.2" x2="72.25" y2="61.2"/><line class="cls-2" x1="-0.25" y1="46.8" x2="72.25" y2="46.8"/><line class="cls-2" x1="-0.25" y1="32.4" x2="72.25" y2="32.4"/><line class="cls-2" x1="-0.25" y1="18" x2="72.25" y2="18"/><line class="cls-2" x1="-0.25" y1="3.6" x2="72.25" y2="3.6"/><line class="cls-2" x1="-72.25" y1="68.4" x2="0.25" y2="68.4"/><line class="cls-2" x1="-72.25" y1="54" x2="0.25" y2="54"/><line class="cls-2" x1="-72.25" y1="39.6" x2="0.25" y2="39.6"/><line class="cls-2" x1="-72.25" y1="25.2" x2="0.25" y2="25.2"/><line class="cls-2" x1="-72.25" y1="10.8" x2="0.25" y2="10.8"/><line class="cls-2" x1="-72.25" y1="61.2" x2="0.25" y2="61.2"/><line class="cls-2" x1="-72.25" y1="46.8" x2="0.25" y2="46.8"/><line class="cls-2" x1="-72.25" y1="32.4" x2="0.25" y2="32.4"/><line class="cls-2" x1="-72.25" y1="18" x2="0.25" y2="18"/><line class="cls-2" x1="-72.25" y1="3.6" x2="0.25" y2="3.6"/></pattern></defs><title>Language skills</title><path class="cls-3" d="M-121.81-307.47a33.54,33.54,0,0,1-33.5-33.5,33.54,33.54,0,0,1,33.5-33.5A33.54,33.54,0,0,1-88.31-341,33.54,33.54,0,0,1-121.81-307.47Zm0-57a23.53,23.53,0,0,0-23.5,23.5,23.53,23.53,0,0,0,23.5,23.5A23.53,23.53,0,0,0-98.31-341,23.53,23.53,0,0,0-121.81-364.47Z" transform="translate(235.61 374.97)"/><path class="cls-3" d="M-40.83-307.47A33.54,33.54,0,0,1-74.33-341a33.54,33.54,0,0,1,33.5-33.5A33.54,33.54,0,0,1-7.33-341,33.54,33.54,0,0,1-40.83-307.47Zm0-57A23.53,23.53,0,0,0-64.33-341a23.53,23.53,0,0,0,23.5,23.5A23.53,23.53,0,0,0-17.33-341,23.53,23.53,0,0,0-40.83-364.47Z" transform="translate(235.61 374.97)"/><path class="cls-4" d="M-120.35-374.44c-0.49,0-1,0-1.46,0v10l1,0a23.53,23.53,0,0,1,22.45,24.5,23.53,23.53,0,0,1-24.5,22.45A23.53,23.53,0,0,1-145.31-341h-10a33.54,33.54,0,0,0,32,33.47,33.54,33.54,0,0,0,34.93-32A33.54,33.54,0,0,0-120.35-374.44Z" transform="translate(235.61 374.97)"/><path class="cls-3" d="M-201.61-307.47a33.54,33.54,0,0,1-33.5-33.5,33.54,33.54,0,0,1,33.5-33.5,33.54,33.54,0,0,1,33.5,33.5A33.54,33.54,0,0,1-201.61-307.47Zm0-57a23.53,23.53,0,0,0-23.5,23.5,23.53,23.53,0,0,0,23.5,23.5,23.53,23.53,0,0,0,23.5-23.5A23.53,23.53,0,0,0-201.61-364.47Z" transform="translate(235.61 374.97)"/><path class="cls-4" d="M-201.61-307.47a33.54,33.54,0,0,1-33.5-33.5,33.54,33.54,0,0,1,33.5-33.5,33.54,33.54,0,0,1,33.5,33.5A33.54,33.54,0,0,1-201.61-307.47Zm0-57a23.53,23.53,0,0,0-23.5,23.5,23.53,23.53,0,0,0,23.5,23.5,23.53,23.53,0,0,0,23.5-23.5A23.53,23.53,0,0,0-201.61-364.47Z" transform="translate(235.61 374.97)"/><path class="cls-5" d="M-40.83-374.47v10A23.53,23.53,0,0,1-17.33-341a23.53,23.53,0,0,1-23.5,23.5,23.54,23.54,0,0,1-22.26-16l-9.47,3.2a33.55,33.55,0,0,0,31.73,22.78A33.54,33.54,0,0,0-7.33-341,33.54,33.54,0,0,0-40.83-374.47Z" transform="translate(235.61 374.97)"/></svg>