<svg id="Layer_1" data-name="Layer 1" xmlns="http://www.w3.org/2000/svg" viewBox="0 0 94 94"><defs><style>.cls-1,.cls-2{fill:none;}.cls-2{stroke:#fffaf5;stroke-miterlimit:10;stroke-width:2px;}</style></defs><title>AppleHIG</title><rect class="cls-1" width="94" height="94"/><path class="cls-2" d="M321.65,200.85c-0.08-7.59,6.19-11.25,6.47-11.43a14,14,0,0,0-11-5.93c-4.67-.45-9.11,2.76-11.48,2.77s-6-2.68-9.9-2.59a14.68,14.68,0,0,0-12.4,7.53c-5.27,9.19-1.32,22.78,3.83,30.22,2.52,3.64,5.53,7.73,9.48,7.58s5.23-2.46,9.83-2.47,5.89,2.45,9.91,2.37,6.68-3.72,9.17-7.38a33.08,33.08,0,0,0,4.14-8.54,13.28,13.28,0,0,1-8.07-12.13" transform="translate(-258.28 -152)"/><path class="cls-2" d="M314.1,178.58a13.21,13.21,0,0,0,3.12-9.58,13.46,13.46,0,0,0-8.84,4.55c-1.94,2.24-3.64,5.83-3.18,9.28,3.36,0.26,6.8-1.71,8.9-4.25" transform="translate(-258.28 -152)"/></svg>