<svg id="Layer_1" data-name="Layer 1" xmlns="http://www.w3.org/2000/svg" viewBox="0 0 94 94"><defs><style>.cls-1,.cls-2{fill:none;}.cls-1{stroke:#fffaf5;stroke-miterlimit:10;stroke-width:2.54px;}</style></defs><title>awardTag1</title><path class="cls-1" d="M335.19,80c0.49,2.2-1.62,4.65-1.63,6.81s2,4.72,1.54,6.83-3.47,3.46-4.43,5.42-0.18,5.11-1.57,6.83-4.6,1.6-6.34,2.95-2.36,4.51-4.37,5.47-4.81-.59-7-0.08-4.13,3-6.31,3-4.13-2.61-6.28-3.11-5,.95-7,0-2.59-4.13-4.31-5.52-4.94-1.3-6.31-3-0.53-4.82-1.49-6.85-3.86-3.28-4.35-5.49S277,88.65,277,86.49s-2-4.72-1.54-6.83,3.47-3.46,4.43-5.42,0.18-5.11,1.57-6.83,4.6-1.6,6.34-2.95,2.36-4.51,4.37-5.47,4.81,0.59,7,.08,4.13-3,6.31-3,4.13,2.61,6.28,3.11,5-.95,7,0,2.59,4.13,4.31,5.52,4.94,1.3,6.31,3,0.53,4.82,1.49,6.85S334.7,77.85,335.19,80Z" transform="translate(-258.26 -47.19)"/><path class="cls-1" d="M311.39,114.3c-2.2.49-4.13,3-6.31,3s-4.13-2.61-6.28-3.11a4.81,4.81,0,0,0-1.18-.11v18.23l7.67-5.06,7.67,5.06V114.23A5.37,5.37,0,0,0,311.39,114.3Z" transform="translate(-258.26 -47.19)"/><path class="cls-1" d="M328.74,81.47c0.39,1.77-.36,3.62-0.37,5.35s0.71,3.66.31,5.35-1.89,3.08-2.66,4.66-0.94,3.58-2,5-3,1.95-4.41,3-2.36,2.81-4,3.58-3.54.43-5.31,0.82-3.42,1.5-5.15,1.5-3.43-1.18-5.14-1.56-3.71-.12-5.31-0.9-2.58-2.52-4-3.63-3.28-1.7-4.38-3.1-1.22-3.37-2-5-2.21-2.95-2.59-4.72,0.36-3.62.37-5.35-0.71-3.66-.31-5.35,1.89-3.08,2.66-4.66,0.94-3.58,2-5,3-1.95,4.41-3,2.36-2.81,4-3.58,3.54-.43,5.31-0.82,3.42-1.5,5.15-1.5,3.43,1.18,5.14,1.56,3.71,0.12,5.31.9,2.58,2.52,4,3.63,3.28,1.7,4.38,3.1,1.22,3.37,2,5S328.36,79.71,328.74,81.47Z" transform="translate(-258.26 -47.19)"/><path class="cls-1" d="M328.74,81.47c0.39,1.77-.36,3.62-0.37,5.35s0.71,3.66.31,5.35-1.89,3.08-2.66,4.66-0.94,3.58-2,5-3,1.95-4.41,3-2.36,2.81-4,3.58-3.54.43-5.31,0.82-3.42,1.5-5.15,1.5-3.43-1.18-5.14-1.56-3.71-.12-5.31-0.9-2.58-2.52-4-3.63-3.28-1.7-4.38-3.1-1.22-3.37-2-5-2.21-2.95-2.59-4.72,0.36-3.62.37-5.35-0.71-3.66-.31-5.35,1.89-3.08,2.66-4.66,0.94-3.58,2-5,3-1.95,4.41-3,2.36-2.81,4-3.58,3.54-.43,5.31-0.82,3.42-1.5,5.15-1.5,3.43,1.18,5.14,1.56,3.71,0.12,5.31.9,2.58,2.52,4,3.63,3.28,1.7,4.38,3.1,1.22,3.37,2,5S328.36,79.71,328.74,81.47Z" transform="translate(-258.26 -47.19)"/><rect class="cls-2" width="94" height="94"/></svg>