<svg id="Layer_1" data-name="Layer 1" xmlns="http://www.w3.org/2000/svg" viewBox="0 0 102.76 121.22"><defs><style>.cls-1,.cls-2,.cls-3{fill:none;stroke:#231f20;stroke-miterlimit:10;}.cls-2{stroke-width:0.83px;}.cls-3{stroke-width:0.9px;}</style></defs><title>awardTag</title><path class="cls-1" d="M221.94,243.72c0.83,3.73-2.74,7.88-2.76,11.55s3.47,8,2.62,11.59-5.88,5.86-7.51,9.2-0.31,8.66-2.66,11.58-7.8,2.72-10.75,5-4,7.65-7.42,9.27-8.15-1-11.88-.14-7,5.17-10.71,5.15-7-4.42-10.65-5.27-8.53,1.61-11.88,0-4.39-7-7.31-9.37-8.37-2.21-10.7-5.16-0.9-8.18-2.52-11.61-6.55-5.57-7.38-9.31,2.74-7.88,2.76-11.55-3.47-8-2.62-11.59,5.88-5.86,7.51-9.2,0.31-8.66,2.66-11.58,7.8-2.72,10.75-5,4-7.65,7.42-9.27,8.15,1,11.88.14,7-5.17,10.71-5.15,7,4.42,10.65,5.27,8.53-1.61,11.88,0,4.39,7,7.31,9.37,8.37,2.21,10.7,5.16,0.9,8.18,2.52,11.61S221.11,240,221.94,243.72Z" transform="translate(-119.8 -202.47)"/><path class="cls-1" d="M221.94,243.72c0.83,3.73-2.74,7.88-2.76,11.55s3.47,8,2.62,11.59-5.88,5.86-7.51,9.2-0.31,8.66-2.66,11.58-7.8,2.72-10.75,5-4,7.65-7.42,9.27-8.15-1-11.88-.14-7,5.17-10.71,5.15-7-4.42-10.65-5.27-8.53,1.61-11.88,0-4.39-7-7.31-9.37-8.37-2.21-10.7-5.16-0.9-8.18-2.52-11.61-6.55-5.57-7.38-9.31,2.74-7.88,2.76-11.55-3.47-8-2.62-11.59,5.88-5.86,7.51-9.2,0.31-8.66,2.66-11.58,7.8-2.72,10.75-5,4-7.65,7.42-9.27,8.15,1,11.88.14,7-5.17,10.71-5.15,7,4.42,10.65,5.27,8.53-1.61,11.88,0,4.39,7,7.31,9.37,8.37,2.21,10.7,5.16,0.9,8.18,2.52,11.61S221.11,240,221.94,243.72Z" transform="translate(-119.8 -202.47)"/><path class="cls-2" d="M200.88,292.69c-2.91,2.29-4,7.65-7.42,9.27-2.55,1.21-6,0-9.15-.26l12.19,21.11,5.36-10.72,12,0.72-12-20.75A7.1,7.1,0,0,0,200.88,292.69Z" transform="translate(-119.8 -202.47)"/><path class="cls-1" d="M207,247c0.6,2.69-.55,5.53-0.56,8.17s1.08,5.58.47,8.17-2.88,4.7-4.06,7.11-1.43,5.47-3.12,7.57-4.61,3-6.74,4.65-3.63,4.3-6.1,5.46-5.4.66-8.09,1.25-5.22,2.3-7.86,2.28-5.24-1.76-7.84-2.37-5.66-.19-8.07-1.37-3.93-3.85-6-5.54-5-2.6-6.69-4.72-1.86-5.14-3-7.61-3.37-4.48-4-7.16,0.55-5.53.56-8.17-1.08-5.58-.47-8.17,2.88-4.7,4.06-7.11,1.43-5.47,3.12-7.57,4.61-3,6.74-4.65,3.63-4.3,6.1-5.46,5.4-.66,8.09-1.25,5.22-2.3,7.86-2.28,5.24,1.76,7.84,2.37,5.66,0.19,8.07,1.37,3.93,3.85,6,5.54,5,2.6,6.69,4.72,1.86,5.14,3,7.61S206.43,244.34,207,247Z" transform="translate(-119.8 -202.47)"/><path class="cls-3" d="M207,247c0.6,2.69-.55,5.53-0.56,8.17s1.08,5.58.47,8.17-2.88,4.7-4.06,7.11-1.43,5.47-3.12,7.57-4.61,3-6.74,4.65-3.63,4.3-6.1,5.46-5.4.66-8.09,1.25-5.22,2.3-7.86,2.28-5.24-1.76-7.84-2.37-5.66-.19-8.07-1.37-3.93-3.85-6-5.54-5-2.6-6.69-4.72-1.86-5.14-3-7.61-3.37-4.48-4-7.16,0.55-5.53.56-8.17-1.08-5.58-.47-8.17,2.88-4.7,4.06-7.11,1.43-5.47,3.12-7.57,4.61-3,6.74-4.65,3.63-4.3,6.1-5.46,5.4-.66,8.09-1.25,5.22-2.3,7.86-2.28,5.24,1.76,7.84,2.37,5.66,0.19,8.07,1.37,3.93,3.85,6,5.54,5,2.6,6.69,4.72,1.86,5.14,3,7.61S206.43,244.34,207,247Z" transform="translate(-119.8 -202.47)"/><path class="cls-2" d="M148.33,301.67c-3.2-1.57-4.29-6.51-6.91-9l-11.63,20.15,12-.72,5.36,10.72,12.27-21.25C155.84,301.19,151.43,303.19,148.33,301.67Z" transform="translate(-119.8 -202.47)"/></svg>