<svg id="Layer_1" data-name="Layer 1" xmlns="http://www.w3.org/2000/svg" viewBox="0 0 94 94"><defs><style>.cls-1,.cls-3{fill:none;}.cls-1{stroke:#fffaf5;stroke-miterlimit:10;stroke-width:2px;}.cls-2{fill:#fffaf5;}</style></defs><title>contest</title><path class="cls-1" d="M106.07,204.55v-14a2,2,0,0,0-2-2h-16a2,2,0,0,0-2,2v6a2,2,0,0,1-2,2h-16a2,2,0,0,0-2,2v24a2,2,0,0,0,2,2h56a2,2,0,0,0,2-2v-16a2,2,0,0,0-2-2h-16A2,2,0,0,1,106.07,204.55Z" transform="translate(-49.07 -152)"/><path class="cls-2" d="M101,182.35V185H92v-2.66h3.12v-6.67a2.39,2.39,0,0,1-.63.54,8.55,8.55,0,0,1-.93.52,6.64,6.64,0,0,1-1,.4,3.54,3.54,0,0,1-1,.15v-2.75a2.49,2.49,0,0,0,1-.25,8.29,8.29,0,0,0,1.12-.6,9.29,9.29,0,0,0,1-.69,2.35,2.35,0,0,0,.52-0.54h3v9.9H101Z" transform="translate(-49.07 -152)"/><path class="cls-2" d="M118,196.31a3,3,0,0,1,1.91,1.13,3.51,3.51,0,0,1,.73,2.25,3.64,3.64,0,0,1-.35,1.62,3.5,3.5,0,0,1-1,1.23,4.63,4.63,0,0,1-1.55.78,7.09,7.09,0,0,1-2.05.28,6.57,6.57,0,0,1-2.56-.47,4.75,4.75,0,0,1-1.84-1.33l1.44-1.81a3.46,3.46,0,0,0,1.18,1,3.81,3.81,0,0,0,1.71.34,2.91,2.91,0,0,0,1.77-.46,1.64,1.64,0,0,0,.61-1.41,1.79,1.79,0,0,0-.7-1.52,3.52,3.52,0,0,0-2.13-.53h-0.53v-1.9h0.59a2.83,2.83,0,0,0,1.82-.52,1.65,1.65,0,0,0,.65-1.34,1.33,1.33,0,0,0-.53-1.16,2.33,2.33,0,0,0-1.39-.38,3.08,3.08,0,0,0-1.57.4,3.14,3.14,0,0,0-1.13,1.12l-1.6-1.83a3.07,3.07,0,0,1,.76-0.79,5.31,5.31,0,0,1,1.07-.61,6.6,6.6,0,0,1,1.3-.4,7.24,7.24,0,0,1,1.44-.14,6,6,0,0,1,1.77.25,4.45,4.45,0,0,1,1.38.68,2.92,2.92,0,0,1,1.2,2.43,3.39,3.39,0,0,1-.17,1.08,3.12,3.12,0,0,1-.49.93,3,3,0,0,1-.77.7A2.68,2.68,0,0,1,118,196.31Z" transform="translate(-49.07 -152)"/><path class="cls-2" d="M70.7,195.56a9.53,9.53,0,0,1,.12-1.75,4.85,4.85,0,0,1,.54-1.48A5,5,0,0,1,72.42,191a9.57,9.57,0,0,1,1.74-1.24l1.59-.85a12.9,12.9,0,0,0,1.16-.67,2.88,2.88,0,0,0,.7-0.63,1.19,1.19,0,0,0,.24-0.74,1.47,1.47,0,0,0-.53-1.11,2.2,2.2,0,0,0-1.52-.47,3.12,3.12,0,0,0-1,.14,3.69,3.69,0,0,0-.83.38,4.72,4.72,0,0,0-.7.54,5.9,5.9,0,0,0-.58.63l-1.87-2.16a4.92,4.92,0,0,1,.81-0.67,7.8,7.8,0,0,1,1.24-.68,9.15,9.15,0,0,1,1.58-.53,7.94,7.94,0,0,1,1.86-.21,6.7,6.7,0,0,1,2,.28,4.39,4.39,0,0,1,1.51.75,3.3,3.3,0,0,1,.92,1.19,3.56,3.56,0,0,1,.32,1.51,3.11,3.11,0,0,1-.29,1.36,4.11,4.11,0,0,1-.73,1.06,5.53,5.53,0,0,1-1,.8q-0.52.34-1,.6l-0.9.51q-0.51.29-1,.63a10.25,10.25,0,0,0-.91.7,3.27,3.27,0,0,0-.64.71h6.67v2.66H70.7v0Z" transform="translate(-49.07 -152)"/><rect class="cls-3" width="94" height="94"/></svg>