<svg id="Layer_1" data-name="Layer 1" xmlns="http://www.w3.org/2000/svg" viewBox="0 0 94 94"><defs><style>.cls-1,.cls-2{fill:none;}.cls-1{stroke:#fffaf5;stroke-linecap:round;stroke-miterlimit:10;}</style></defs><title>Document</title><path class="cls-1" d="M175.14,115.37h1a1.87,1.87,0,0,1-1.87-1.87h0V74.78A1.87,1.87,0,0,1,176,72.85h-0.94a1.93,1.93,0,0,0-1.93,1.93v38.7A1.93,1.93,0,0,0,175.14,115.37Z" transform="translate(-156.18 -47.19)"/><rect class="cls-1" x="18.02" y="25.69" width="28.99" height="42.52" rx="1.87" ry="1.87"/><rect class="cls-1" x="19.96" y="25.69" width="27.06" height="42.52" rx="1.81" ry="1.81"/><rect class="cls-1" x="21.89" y="25.69" width="25.12" height="42.52" rx="1.75" ry="1.75"/><path class="cls-1" d="M231.25,73h-1a1.87,1.87,0,0,1,1.87,1.87h0v38.77a1.87,1.87,0,0,1-1.87,1.87h1a1.93,1.93,0,0,0,1.93-1.93V74.92A1.93,1.93,0,0,0,231.25,73Z" transform="translate(-156.18 -47.19)"/><rect class="cls-1" x="47.01" y="25.83" width="27.06" height="42.52" rx="1.81" ry="1.81"/><rect class="cls-1" x="47.01" y="25.83" width="25.12" height="42.52" rx="1.75" ry="1.75"/><rect class="cls-1" x="47.01" y="25.83" width="28.99" height="42.52" rx="1.87" ry="1.87"/><rect class="cls-2" width="94" height="94"/></svg>