<svg id="Layer_1" data-name="Layer 1" xmlns="http://www.w3.org/2000/svg" viewBox="0 0 94 94"><defs><style>.cls-1,.cls-2{fill:none;}.cls-1{stroke:#fffaf5;stroke-linecap:round;stroke-miterlimit:10;stroke-width:2px;}</style></defs><title>IconSet</title><path class="cls-1" d="M394.3,69.71a8.59,8.59,0,1,1-2.61-3.6" transform="translate(-360.35 -47.19)"/><path class="cls-1" d="M408.72,64.32a8.57,8.57,0,0,1,6.06,12.74h0a8.57,8.57,0,0,1-11.71,3.15h0a8.57,8.57,0,0,1-3.15-11.71h0a8.54,8.54,0,0,1,4.37-3.72" transform="translate(-360.35 -47.19)"/><path class="cls-1" d="M425.37,64.75a8.59,8.59,0,1,1-3.6,2.61" transform="translate(-360.35 -47.19)"/><path class="cls-1" d="M379.64,88.77A8.58,8.58,0,0,1,393.7,89.9h0a8.57,8.57,0,0,1-3.13,11.71h0a8.57,8.57,0,0,1-11.71-3.13h0a8.54,8.54,0,0,1-1-5.69" transform="translate(-360.35 -47.19)"/><path class="cls-1" d="M412.77,87.54a8.58,8.58,0,0,1-1.13,14.06h0a8.57,8.57,0,0,1-11.71-3.13h0a8.57,8.57,0,0,1,3.13-11.71h0a8.54,8.54,0,0,1,5.69-1" transform="translate(-360.35 -47.19)"/><path class="cls-1" d="M420,92.77a8.57,8.57,0,0,1,12.74-6.06h0a8.57,8.57,0,0,1,3.16,11.7l0,0a8.57,8.57,0,0,1-11.71,3.15h0a8.54,8.54,0,0,1-3.72-4.37" transform="translate(-360.35 -47.19)"/><path class="cls-1" d="M378.27,118.66a8.59,8.59,0,1,1,2.61,3.6" transform="translate(-360.35 -47.19)"/><path class="cls-1" d="M406,124.08a8.57,8.57,0,0,1-6.06-12.74h0a8.57,8.57,0,0,1,11.71-3.15h0a8.57,8.57,0,0,1,3.15,11.71h0a8.54,8.54,0,0,1-4.37,3.72" transform="translate(-360.35 -47.19)"/><path class="cls-1" d="M423,122.25a8.58,8.58,0,0,1,1.13-14.06h0a8.57,8.57,0,0,1,11.71,3.13h0A8.57,8.57,0,0,1,432.72,123h0a8.54,8.54,0,0,1-5.69,1" transform="translate(-360.35 -47.19)"/><rect class="cls-2" width="94" height="94"/></svg>