<svg id="Layer_1" data-name="Layer 1" xmlns="http://www.w3.org/2000/svg" viewBox="0 0 300 300"><defs><style>.cls-1{fill:#41484a;}</style></defs><title>JPlogo</title><path class="cls-1" d="M120.26,60.74q5.77,0,5.77-5.37T120.26,50q-5.77,0-5.77,5.37T120.26,60.74Z"/><path class="cls-1" d="M197.35,132.33a45.66,45.66,0,0,0-33.52-13.82,47.12,47.12,0,0,0-23.77,6.56,40.68,40.68,0,0,0-16.81,17.51V82.43h-6.37v95.29q0,12.13-8.15,20.09a27.43,27.43,0,0,1-19.89,8v5.57a34.28,34.28,0,0,0,24.37-9.45,32.82,32.82,0,0,0,3.68-4.14V250h6.37V188.53a44.1,44.1,0,0,0,17.31,17.41,46.46,46.46,0,0,0,23.27,6.47,45.64,45.64,0,0,0,33.52-13.83A46.59,46.59,0,0,0,197.35,132.33Zm-4.48,62.27a38.72,38.72,0,0,1-28.75,12.23q-16.81,0-29-12.23a39.71,39.71,0,0,1-11.84-23.41V160.11a40.46,40.46,0,0,1,11.84-23.6q12.23-12.43,28.94-12.43t28.74,12.33A41.3,41.3,0,0,1,192.87,194.6Z"/></svg>